<svg xmlns="http://www.w3.org/2000/svg" version="1.1" xmlns:xlink="http://www.w3.org/1999/xlink" xmlns:svgjs="http://svgjs.dev/svgjs" width="80" height="80"><svg width="80" height="80" viewBox="0 0 80 80" fill="none" xmlns="http://www.w3.org/2000/svg">
<path d="M54.5371 43.2219L64.7589 38.0722C65.8047 37.5454 66.6525 38.0713 66.6525 39.2469V58.1385C66.6525 59.3141 65.8047 60.6943 64.7589 61.2212L54.5371 66.3708C53.4913 66.8977 52.6435 66.3717 52.6435 65.1961V46.3045C52.6435 45.1289 53.4913 43.7487 54.5371 43.2219Z" fill="#E4783A"></path>
<path d="M40.3957 6.2532C39.5242 5.81414 38.2209 5.97892 37.4848 6.62125L14.5643 26.6214C14.4962 26.6808 14.4354 26.7422 14.3817 26.8051C13.9411 27.2199 13.6653 27.5913 13.4946 28.0034C13.3338 28.3918 13.2663 28.8163 13.2422 29.3473C13.2347 29.4139 13.2308 29.4837 13.2308 29.5565V59.4881C13.2308 60.2935 13.6832 61.03 14.3997 61.391L38.96 73.7642C40.3685 74.4738 42.0276 73.4447 42.0276 71.8613V44.8413C42.0276 44.0144 42.0276 43.2504 42.2889 42.5491C42.4775 42.0431 42.8022 41.5697 43.3611 41.1289L65.1285 22.1349L66.2816 21.1288C67.0177 20.4864 66.908 19.6098 66.0365 19.1707L40.3957 6.2532Z" fill="#E4783A"></path>
</svg><style>@media (prefers-color-scheme: light) { :root { filter: none; } }
@media (prefers-color-scheme: dark) { :root { filter: none; } }
</style></svg>