<svg width="398" height="85" viewBox="0 0 398 85" fill="none" xmlns="http://www.w3.org/2000/svg">
<g filter="url(#filter0_dd_455_1229)">
<rect x="5.5" y="25.5" width="26" height="26" rx="13" stroke="white" stroke-width="3" shape-rendering="crispEdges"/>
<circle cx="18.5" cy="38.5" r="7" fill="white" stroke="white" stroke-width="3"/>
</g>
<g filter="url(#filter1_dd_455_1229)">
<rect x="46" width="349" height="78" rx="12" fill="white"/>
<rect x="46.5" y="0.5" width="348" height="77" rx="11.5" stroke="#DFDFDF"/>
<path d="M77.8337 34.5L75.3337 32M75.3337 32L77.8337 29.5M75.3337 32H80.3337M72.0003 29.9167H68.2503C67.0874 29.9167 66.5059 29.9167 66.0327 30.0602C64.9674 30.3834 64.1337 31.217 63.8105 32.2824C63.667 32.7555 63.667 33.337 63.667 34.5M74.0837 23.25C74.0837 25.3211 72.4047 27 70.3337 27C68.2626 27 66.5837 25.3211 66.5837 23.25C66.5837 21.1789 68.2626 19.5 70.3337 19.5C72.4047 19.5 74.0837 21.1789 74.0837 23.25Z" stroke="#353535" stroke-width="2" stroke-linecap="round" stroke-linejoin="round"/>
<path d="M89.4382 20.9091H91.8352L96.0028 31.0852H96.1562L100.324 20.9091H102.721V34H100.842V24.527H100.72L96.8594 33.9808H95.2997L91.4389 24.5206H91.3175V34H89.4382V20.9091ZM105.439 34V24.1818H107.35V34H105.439ZM106.404 22.6669C106.072 22.6669 105.786 22.5561 105.548 22.3345C105.313 22.1087 105.196 21.8402 105.196 21.5291C105.196 21.2138 105.313 20.9453 105.548 20.7237C105.786 20.4979 106.072 20.3849 106.404 20.3849C106.737 20.3849 107.02 20.4979 107.254 20.7237C107.493 20.9453 107.612 21.2138 107.612 21.5291C107.612 21.8402 107.493 22.1087 107.254 22.3345C107.02 22.5561 106.737 22.6669 106.404 22.6669ZM114.153 34.1982C113.186 34.1982 112.353 33.9915 111.654 33.5781C110.959 33.1605 110.422 32.5746 110.043 31.8203C109.668 31.0618 109.48 30.1733 109.48 29.1548C109.48 28.1491 109.668 27.2628 110.043 26.4957C110.422 25.7287 110.951 25.13 111.628 24.6996C112.31 24.2692 113.107 24.054 114.019 24.054C114.573 24.054 115.11 24.1456 115.63 24.3288C116.15 24.5121 116.616 24.7997 117.029 25.1918C117.443 25.5838 117.769 26.093 118.007 26.7195C118.246 27.3416 118.365 28.098 118.365 28.9886V29.6662H110.561V28.2344H116.493C116.493 27.7315 116.39 27.2862 116.186 26.8984C115.981 26.5064 115.694 26.1974 115.323 25.9716C114.956 25.7457 114.526 25.6328 114.032 25.6328C113.495 25.6328 113.026 25.7649 112.625 26.0291C112.229 26.2891 111.922 26.63 111.705 27.0518C111.492 27.4695 111.385 27.9233 111.385 28.4134V29.532C111.385 30.1882 111.5 30.7464 111.73 31.2067C111.965 31.6669 112.291 32.0185 112.708 32.2614C113.126 32.5 113.614 32.6193 114.172 32.6193C114.534 32.6193 114.865 32.5682 115.163 32.4659C115.461 32.3594 115.719 32.2017 115.936 31.9929C116.154 31.7841 116.32 31.5263 116.435 31.2195L118.244 31.5455C118.099 32.0781 117.839 32.5447 117.464 32.9453C117.093 33.3416 116.627 33.6506 116.064 33.8722C115.506 34.0895 114.869 34.1982 114.153 34.1982ZM125.069 24.1818V25.7159H119.706V24.1818H125.069ZM121.144 21.8295H123.056V31.1172C123.056 31.4879 123.111 31.767 123.222 31.9545C123.333 32.1378 123.475 32.2635 123.65 32.3317C123.829 32.3956 124.023 32.4276 124.232 32.4276C124.385 32.4276 124.519 32.4169 124.634 32.3956C124.749 32.3743 124.839 32.3572 124.903 32.3445L125.248 33.9233C125.137 33.9659 124.98 34.0085 124.775 34.0511C124.57 34.098 124.315 34.1236 124.008 34.1278C123.505 34.1364 123.036 34.0469 122.602 33.8594C122.167 33.6719 121.816 33.3821 121.547 32.9901C121.279 32.598 121.144 32.1058 121.144 31.5135V21.8295ZM131.309 34.1982C130.342 34.1982 129.509 33.9915 128.81 33.5781C128.115 33.1605 127.578 32.5746 127.199 31.8203C126.824 31.0618 126.637 30.1733 126.637 29.1548C126.637 28.1491 126.824 27.2628 127.199 26.4957C127.578 25.7287 128.107 25.13 128.784 24.6996C129.466 24.2692 130.263 24.054 131.175 24.054C131.729 24.054 132.266 24.1456 132.786 24.3288C133.306 24.5121 133.772 24.7997 134.186 25.1918C134.599 25.5838 134.925 26.093 135.164 26.7195C135.402 27.3416 135.522 28.098 135.522 28.9886V29.6662H127.717V28.2344H133.649C133.649 27.7315 133.547 27.2862 133.342 26.8984C133.137 26.5064 132.85 26.1974 132.479 25.9716C132.113 25.7457 131.682 25.6328 131.188 25.6328C130.651 25.6328 130.182 25.7649 129.782 26.0291C129.385 26.2891 129.078 26.63 128.861 27.0518C128.648 27.4695 128.542 27.9233 128.542 28.4134V29.532C128.542 30.1882 128.657 30.7464 128.887 31.2067C129.121 31.6669 129.447 32.0185 129.865 32.2614C130.282 32.5 130.77 32.6193 131.328 32.6193C131.691 32.6193 132.021 32.5682 132.319 32.4659C132.618 32.3594 132.875 32.2017 133.093 31.9929C133.31 31.7841 133.476 31.5263 133.591 31.2195L135.4 31.5455C135.255 32.0781 134.995 32.5447 134.62 32.9453C134.25 33.3416 133.783 33.6506 133.221 33.8722C132.662 34.0895 132.025 34.1982 131.309 34.1982ZM137.642 34V24.1818H139.49V25.7415H139.592C139.771 25.2131 140.086 24.7976 140.538 24.495C140.994 24.1882 141.509 24.0348 142.085 24.0348C142.204 24.0348 142.345 24.0391 142.507 24.0476C142.673 24.0561 142.803 24.0668 142.896 24.0795V25.9077C142.82 25.8864 142.683 25.8629 142.487 25.8374C142.291 25.8075 142.095 25.7926 141.899 25.7926C141.448 25.7926 141.045 25.8885 140.691 26.0803C140.342 26.2678 140.065 26.5298 139.86 26.8665C139.656 27.1989 139.553 27.5781 139.553 28.0043V34H137.642ZM146.837 34L143.948 24.1818H145.923L147.847 31.392H147.943L149.873 24.1818H151.849L153.766 31.3601H153.862L155.773 24.1818H157.748L154.866 34H152.916L150.922 26.9112H150.775L148.78 34H146.837ZM163.495 34.1982C162.528 34.1982 161.694 33.9915 160.996 33.5781C160.301 33.1605 159.764 32.5746 159.385 31.8203C159.01 31.0618 158.822 30.1733 158.822 29.1548C158.822 28.1491 159.01 27.2628 159.385 26.4957C159.764 25.7287 160.292 25.13 160.97 24.6996C161.652 24.2692 162.449 24.054 163.361 24.054C163.915 24.054 164.452 24.1456 164.971 24.3288C165.491 24.5121 165.958 24.7997 166.371 25.1918C166.785 25.5838 167.111 26.093 167.349 26.7195C167.588 27.3416 167.707 28.098 167.707 28.9886V29.6662H159.903V28.2344H165.834C165.834 27.7315 165.732 27.2862 165.528 26.8984C165.323 26.5064 165.035 26.1974 164.665 25.9716C164.298 25.7457 163.868 25.6328 163.373 25.6328C162.836 25.6328 162.368 25.7649 161.967 26.0291C161.571 26.2891 161.264 26.63 161.047 27.0518C160.834 27.4695 160.727 27.9233 160.727 28.4134V29.532C160.727 30.1882 160.842 30.7464 161.072 31.2067C161.307 31.6669 161.633 32.0185 162.05 32.2614C162.468 32.5 162.956 32.6193 163.514 32.6193C163.876 32.6193 164.206 32.5682 164.505 32.4659C164.803 32.3594 165.061 32.2017 165.278 31.9929C165.496 31.7841 165.662 31.5263 165.777 31.2195L167.586 31.5455C167.441 32.0781 167.181 32.5447 166.806 32.9453C166.435 33.3416 165.969 33.6506 165.406 33.8722C164.848 34.0895 164.211 34.1982 163.495 34.1982ZM173.963 34.1982C173.013 34.1982 172.195 33.983 171.509 33.5526C170.827 33.1179 170.303 32.5192 169.936 31.7564C169.57 30.9936 169.387 30.12 169.387 29.1357C169.387 28.1385 169.574 27.2585 169.949 26.4957C170.324 25.7287 170.853 25.13 171.534 24.6996C172.216 24.2692 173.02 24.054 173.944 24.054C174.69 24.054 175.355 24.1925 175.939 24.4695C176.522 24.7422 176.993 25.1257 177.351 25.62C177.713 26.1143 177.929 26.6918 177.997 27.3523H176.137C176.034 26.892 175.8 26.4957 175.434 26.1634C175.071 25.831 174.586 25.6648 173.976 25.6648C173.444 25.6648 172.977 25.8054 172.576 26.0866C172.18 26.3636 171.871 26.7599 171.65 27.2756C171.428 27.7869 171.317 28.392 171.317 29.0909C171.317 29.8068 171.426 30.4247 171.643 30.9446C171.86 31.4645 172.167 31.8672 172.564 32.1527C172.964 32.4382 173.435 32.581 173.976 32.581C174.338 32.581 174.667 32.5149 174.961 32.3828C175.259 32.2464 175.508 32.0526 175.708 31.8011C175.913 31.5497 176.056 31.2472 176.137 30.8935H177.997C177.929 31.5284 177.722 32.0952 177.377 32.5938C177.032 33.0923 176.569 33.4844 175.99 33.7699C175.414 34.0554 174.739 34.1982 173.963 34.1982ZM181.952 28.1705V34H180.041V20.9091H181.926V25.7798H182.048C182.278 25.2514 182.629 24.8317 183.102 24.5206C183.575 24.2095 184.193 24.054 184.956 24.054C185.629 24.054 186.218 24.1925 186.72 24.4695C187.227 24.7464 187.619 25.1598 187.896 25.7095C188.178 26.255 188.318 26.9368 188.318 27.755V34H186.407V27.9851C186.407 27.2649 186.222 26.7067 185.851 26.3104C185.48 25.9098 184.965 25.7095 184.304 25.7095C183.852 25.7095 183.448 25.8054 183.09 25.9972C182.736 26.1889 182.457 26.4702 182.252 26.8409C182.052 27.2074 181.952 27.6506 181.952 28.1705ZM198.226 26.5788L196.494 26.8857C196.421 26.6641 196.306 26.4531 196.149 26.2528C195.995 26.0526 195.786 25.8885 195.522 25.7607C195.258 25.6328 194.928 25.5689 194.531 25.5689C193.99 25.5689 193.539 25.6903 193.176 25.9332C192.814 26.1719 192.633 26.4808 192.633 26.8601C192.633 27.1882 192.754 27.4524 192.997 27.6527C193.24 27.853 193.632 28.017 194.173 28.1449L195.733 28.5028C196.637 28.7116 197.31 29.0334 197.753 29.468C198.196 29.9027 198.418 30.4673 198.418 31.1619C198.418 31.75 198.247 32.2741 197.906 32.7344C197.57 33.1903 197.099 33.5483 196.494 33.8082C195.893 34.0682 195.196 34.1982 194.404 34.1982C193.304 34.1982 192.407 33.9638 191.713 33.495C191.018 33.022 190.592 32.3509 190.434 31.4815L192.281 31.2003C192.396 31.6818 192.633 32.0462 192.991 32.2933C193.349 32.5362 193.816 32.6577 194.391 32.6577C195.017 32.6577 195.518 32.5277 195.893 32.2678C196.268 32.0036 196.455 31.6818 196.455 31.3026C196.455 30.9957 196.34 30.7379 196.11 30.5291C195.884 30.3203 195.537 30.1626 195.068 30.0561L193.406 29.6918C192.49 29.483 191.813 29.1506 191.374 28.6946C190.939 28.2386 190.722 27.6612 190.722 26.9624C190.722 26.3828 190.884 25.8757 191.208 25.4411C191.531 25.0064 191.979 24.6676 192.55 24.4247C193.121 24.1776 193.775 24.054 194.512 24.054C195.573 24.054 196.409 24.2841 197.018 24.7443C197.627 25.2003 198.03 25.8118 198.226 26.5788ZM204.751 34.1982C203.783 34.1982 202.95 33.9915 202.251 33.5781C201.557 33.1605 201.02 32.5746 200.641 31.8203C200.266 31.0618 200.078 30.1733 200.078 29.1548C200.078 28.1491 200.266 27.2628 200.641 26.4957C201.02 25.7287 201.548 25.13 202.226 24.6996C202.908 24.2692 203.705 24.054 204.616 24.054C205.17 24.054 205.707 24.1456 206.227 24.3288C206.747 24.5121 207.214 24.7997 207.627 25.1918C208.04 25.5838 208.366 26.093 208.605 26.7195C208.844 27.3416 208.963 28.098 208.963 28.9886V29.6662H201.158V28.2344H207.09C207.09 27.7315 206.988 27.2862 206.783 26.8984C206.579 26.5064 206.291 26.1974 205.92 25.9716C205.554 25.7457 205.124 25.6328 204.629 25.6328C204.092 25.6328 203.624 25.7649 203.223 26.0291C202.827 26.2891 202.52 26.63 202.303 27.0518C202.089 27.4695 201.983 27.9233 201.983 28.4134V29.532C201.983 30.1882 202.098 30.7464 202.328 31.2067C202.562 31.6669 202.888 32.0185 203.306 32.2614C203.724 32.5 204.212 32.6193 204.77 32.6193C205.132 32.6193 205.462 32.5682 205.761 32.4659C206.059 32.3594 206.317 32.2017 206.534 31.9929C206.751 31.7841 206.918 31.5263 207.033 31.2195L208.842 31.5455C208.697 32.0781 208.437 32.5447 208.062 32.9453C207.691 33.3416 207.224 33.6506 206.662 33.8722C206.104 34.0895 205.467 34.1982 204.751 34.1982ZM212.995 20.9091V34H211.084V20.9091H212.995Z" fill="#353535"/>
<path fill-rule="evenodd" clip-rule="evenodd" d="M63.5 50C63.5 47.5147 65.5147 45.5 68 45.5C70.4853 45.5 72.5 47.5147 72.5 50C72.5 51.2631 71.9266 52.3701 71.1461 53.3835C70.494 54.2303 69.6592 55.0579 68.8253 55.8845L68.8247 55.8851C68.6672 56.0412 68.5098 56.1973 68.3536 56.3536C68.1583 56.5488 67.8417 56.5488 67.6464 56.3536C67.4901 56.1972 67.3322 56.0407 67.1746 55.8844C66.3407 55.0578 65.506 54.2303 64.8539 53.3835C64.0734 52.3701 63.5 51.2631 63.5 50ZM69.5 50C69.5 50.8284 68.8284 51.5 68 51.5C67.1716 51.5 66.5 50.8284 66.5 50C66.5 49.1716 67.1716 48.5 68 48.5C68.8284 48.5 69.5 49.1716 69.5 50Z" fill="#636363"/>
<path d="M77.9688 55V47H78.9375V50.5625H83.2031V47H84.1719V55H83.2031V51.4219H78.9375V55H77.9688ZM89.7676 52.5469V49H90.6895V55H89.7676V53.9844H89.7051C89.5645 54.2891 89.3457 54.5482 89.0488 54.7617C88.752 54.9727 88.377 55.0781 87.9238 55.0781C87.5488 55.0781 87.2155 54.9961 86.9238 54.832C86.6322 54.6654 86.403 54.4154 86.2363 54.082C86.0697 53.7461 85.9863 53.3229 85.9863 52.8125V49H86.9082V52.75C86.9082 53.1875 87.0306 53.5365 87.2754 53.7969C87.5228 54.0573 87.8379 54.1875 88.2207 54.1875C88.4499 54.1875 88.6829 54.1289 88.9199 54.0117C89.1595 53.8945 89.36 53.7148 89.5215 53.4727C89.6855 53.2305 89.7676 52.9219 89.7676 52.5469ZM94.7998 57.375C94.3545 57.375 93.9717 57.3177 93.6514 57.2031C93.3311 57.0911 93.0641 56.9427 92.8506 56.7578C92.6396 56.5755 92.4717 56.3802 92.3467 56.1719L93.0811 55.6563C93.1644 55.7656 93.2699 55.8906 93.3975 56.0312C93.5251 56.1745 93.6995 56.2982 93.9209 56.4023C94.1449 56.5091 94.4378 56.5625 94.7998 56.5625C95.2842 56.5625 95.6839 56.4453 95.999 56.2109C96.3141 55.9766 96.4717 55.6094 96.4717 55.1094V53.8906H96.3936C96.3258 54 96.2295 54.1354 96.1045 54.2969C95.9821 54.4557 95.805 54.5977 95.5732 54.7227C95.3441 54.8451 95.0342 54.9062 94.6436 54.9062C94.1592 54.9062 93.7243 54.7917 93.3389 54.5625C92.9561 54.3333 92.6527 54 92.4287 53.5625C92.2074 53.125 92.0967 52.5937 92.0967 51.9687C92.0967 51.3542 92.2048 50.819 92.4209 50.3633C92.637 49.9049 92.9378 49.5508 93.3232 49.3008C93.7087 49.0482 94.154 48.9219 94.6592 48.9219C95.0498 48.9219 95.3597 48.987 95.5889 49.1172C95.8206 49.2448 95.9977 49.3906 96.1201 49.5547C96.2451 49.7161 96.3415 49.849 96.4092 49.9531H96.5029V49H97.3936V55.1719C97.3936 55.6875 97.2764 56.1068 97.042 56.4297C96.8102 56.7552 96.4977 56.9935 96.1045 57.1445C95.7139 57.2982 95.279 57.375 94.7998 57.375ZM94.7686 54.0781C95.1383 54.0781 95.4508 53.9935 95.7061 53.8242C95.9613 53.6549 96.1553 53.4115 96.2881 53.0938C96.4209 52.776 96.4873 52.3958 96.4873 51.9531C96.4873 51.5208 96.4222 51.1393 96.292 50.8086C96.1618 50.4779 95.9691 50.2187 95.7139 50.0312C95.4587 49.8437 95.1436 49.75 94.7686 49.75C94.3779 49.75 94.0524 49.849 93.792 50.0469C93.5342 50.2448 93.3402 50.5104 93.21 50.8438C93.0824 51.1771 93.0186 51.5469 93.0186 51.9531C93.0186 52.3698 93.0837 52.7383 93.2139 53.0586C93.3467 53.3763 93.542 53.6263 93.7998 53.8086C94.0602 53.9883 94.3831 54.0781 94.7686 54.0781ZM103.331 50.3437L102.503 50.5781C102.451 50.4401 102.374 50.306 102.272 50.1758C102.174 50.043 102.038 49.9336 101.866 49.8477C101.694 49.7617 101.474 49.7187 101.206 49.7187C100.839 49.7187 100.533 49.8034 100.288 49.9727C100.046 50.1393 99.9248 50.3516 99.9248 50.6094C99.9248 50.8385 100.008 51.0195 100.175 51.1523C100.341 51.2852 100.602 51.3958 100.956 51.4844L101.847 51.7031C102.383 51.8333 102.783 52.0326 103.046 52.3008C103.309 52.5664 103.44 52.9089 103.44 53.3281C103.44 53.6719 103.341 53.9792 103.144 54.25C102.948 54.5208 102.675 54.7344 102.323 54.8906C101.972 55.0469 101.563 55.125 101.097 55.125C100.485 55.125 99.9782 54.9922 99.5771 54.7266C99.1761 54.4609 98.9222 54.0729 98.8154 53.5625L99.6904 53.3437C99.7738 53.6667 99.9313 53.9089 100.163 54.0703C100.397 54.2318 100.703 54.3125 101.081 54.3125C101.511 54.3125 101.852 54.2214 102.104 54.0391C102.36 53.8542 102.487 53.6328 102.487 53.375C102.487 53.1667 102.414 52.9922 102.269 52.8516C102.123 52.7083 101.899 52.6016 101.597 52.5312L100.597 52.2969C100.047 52.1667 99.6436 51.9648 99.3857 51.6914C99.1305 51.4154 99.0029 51.0703 99.0029 50.6562C99.0029 50.3177 99.098 50.0182 99.2881 49.7578C99.4808 49.4974 99.7425 49.293 100.073 49.1445C100.407 48.9961 100.784 48.9219 101.206 48.9219C101.8 48.9219 102.266 49.0521 102.604 49.3125C102.946 49.5729 103.188 49.9167 103.331 50.3437ZM107.438 49V49.7812H104.328V49H107.438ZM105.234 47.5625H106.156V53.2812C106.156 53.5417 106.194 53.737 106.27 53.8672C106.348 53.9948 106.447 54.0807 106.566 54.125C106.689 54.1667 106.818 54.1875 106.953 54.1875C107.055 54.1875 107.138 54.1823 107.203 54.1719C107.268 54.1589 107.32 54.1484 107.359 54.1406L107.547 54.9687C107.484 54.9922 107.397 55.0156 107.285 55.0391C107.173 55.0651 107.031 55.0781 106.859 55.0781C106.599 55.0781 106.344 55.0221 106.094 54.9102C105.846 54.7982 105.641 54.6276 105.477 54.3984C105.315 54.1693 105.234 53.8802 105.234 53.5312V47.5625ZM108.824 55V49H109.715V49.9062H109.777C109.887 49.6094 110.085 49.3685 110.371 49.1836C110.658 48.9987 110.98 48.9062 111.34 48.9062C111.408 48.9062 111.492 48.9076 111.594 48.9102C111.695 48.9128 111.772 48.9167 111.824 48.9219V49.8594C111.793 49.8516 111.721 49.8398 111.609 49.8242C111.5 49.806 111.384 49.7969 111.262 49.7969C110.97 49.7969 110.71 49.8581 110.48 49.9805C110.254 50.1003 110.074 50.2669 109.941 50.4805C109.811 50.6914 109.746 50.9323 109.746 51.2031V55H108.824ZM114.683 55.1406C114.302 55.1406 113.957 55.069 113.647 54.9258C113.338 54.7799 113.091 54.5703 112.909 54.2969C112.727 54.0208 112.636 53.6875 112.636 53.2969C112.636 52.9531 112.703 52.6745 112.839 52.4609C112.974 52.2448 113.155 52.0755 113.382 51.9531C113.608 51.8307 113.858 51.7396 114.132 51.6797C114.408 51.6172 114.685 51.5677 114.964 51.5313C115.328 51.4844 115.624 51.4492 115.851 51.4258C116.08 51.3997 116.246 51.3568 116.351 51.2969C116.457 51.237 116.511 51.1328 116.511 50.9844V50.9531C116.511 50.5677 116.405 50.2682 116.194 50.0547C115.986 49.8411 115.67 49.7344 115.245 49.7344C114.805 49.7344 114.46 49.8307 114.21 50.0234C113.96 50.2161 113.784 50.4219 113.683 50.6406L112.808 50.3281C112.964 49.9635 113.172 49.6797 113.433 49.4766C113.696 49.2708 113.982 49.1276 114.292 49.0469C114.604 48.9635 114.912 48.9219 115.214 48.9219C115.407 48.9219 115.628 48.9453 115.878 48.9922C116.131 49.0365 116.374 49.1289 116.608 49.2695C116.845 49.4102 117.042 49.6224 117.198 49.9062C117.354 50.1901 117.433 50.5703 117.433 51.0469V55H116.511V54.1875H116.464C116.401 54.3177 116.297 54.457 116.151 54.6055C116.006 54.7539 115.812 54.8802 115.569 54.9844C115.327 55.0885 115.032 55.1406 114.683 55.1406ZM114.823 54.3125C115.188 54.3125 115.495 54.2409 115.745 54.0977C115.998 53.9544 116.188 53.7695 116.315 53.543C116.446 53.3164 116.511 53.0781 116.511 52.8281V51.9844C116.472 52.0312 116.386 52.0742 116.253 52.1133C116.123 52.1497 115.972 52.1823 115.8 52.2109C115.631 52.237 115.465 52.2604 115.304 52.2812C115.145 52.2995 115.016 52.3151 114.917 52.3281C114.677 52.3594 114.453 52.4102 114.245 52.4805C114.039 52.5482 113.873 52.651 113.745 52.7891C113.62 52.9245 113.558 53.1094 113.558 53.3437C113.558 53.6641 113.676 53.9062 113.913 54.0703C114.153 54.2318 114.456 54.3125 114.823 54.3125ZM123.365 50.3437L122.537 50.5781C122.485 50.4401 122.408 50.306 122.307 50.1758C122.208 50.043 122.072 49.9336 121.9 49.8477C121.729 49.7617 121.508 49.7187 121.24 49.7187C120.873 49.7187 120.567 49.8034 120.322 49.9727C120.08 50.1393 119.959 50.3516 119.959 50.6094C119.959 50.8385 120.042 51.0195 120.209 51.1523C120.376 51.2852 120.636 51.3958 120.99 51.4844L121.881 51.7031C122.417 51.8333 122.817 52.0326 123.08 52.3008C123.343 52.5664 123.475 52.9089 123.475 53.3281C123.475 53.6719 123.376 53.9792 123.178 54.25C122.982 54.5208 122.709 54.7344 122.357 54.8906C122.006 55.0469 121.597 55.125 121.131 55.125C120.519 55.125 120.012 54.9922 119.611 54.7266C119.21 54.4609 118.956 54.0729 118.85 53.5625L119.725 53.3437C119.808 53.6667 119.965 53.9089 120.197 54.0703C120.432 54.2318 120.738 54.3125 121.115 54.3125C121.545 54.3125 121.886 54.2214 122.139 54.0391C122.394 53.8542 122.521 53.6328 122.521 53.375C122.521 53.1667 122.449 52.9922 122.303 52.8516C122.157 52.7083 121.933 52.6016 121.631 52.5312L120.631 52.2969C120.081 52.1667 119.678 51.9648 119.42 51.6914C119.165 51.4154 119.037 51.0703 119.037 50.6562C119.037 50.3177 119.132 50.0182 119.322 49.7578C119.515 49.4974 119.777 49.293 120.107 49.1445C120.441 48.9961 120.818 48.9219 121.24 48.9219C121.834 48.9219 122.3 49.0521 122.639 49.3125C122.98 49.5729 123.222 49.9167 123.365 50.3437ZM129.112 50.3437L128.284 50.5781C128.232 50.4401 128.155 50.306 128.054 50.1758C127.955 50.043 127.819 49.9336 127.647 49.8477C127.476 49.7617 127.256 49.7187 126.987 49.7187C126.62 49.7187 126.314 49.8034 126.069 49.9727C125.827 50.1393 125.706 50.3516 125.706 50.6094C125.706 50.8385 125.789 51.0195 125.956 51.1523C126.123 51.2852 126.383 51.3958 126.737 51.4844L127.628 51.7031C128.164 51.8333 128.564 52.0326 128.827 52.3008C129.09 52.5664 129.222 52.9089 129.222 53.3281C129.222 53.6719 129.123 53.9792 128.925 54.25C128.729 54.5208 128.456 54.7344 128.104 54.8906C127.753 55.0469 127.344 55.125 126.878 55.125C126.266 55.125 125.759 54.9922 125.358 54.7266C124.957 54.4609 124.703 54.0729 124.597 53.5625L125.472 53.3437C125.555 53.6667 125.713 53.9089 125.944 54.0703C126.179 54.2318 126.485 54.3125 126.862 54.3125C127.292 54.3125 127.633 54.2214 127.886 54.0391C128.141 53.8542 128.269 53.6328 128.269 53.375C128.269 53.1667 128.196 52.9922 128.05 52.8516C127.904 52.7083 127.68 52.6016 127.378 52.5312L126.378 52.2969C125.828 52.1667 125.425 51.9648 125.167 51.6914C124.912 51.4154 124.784 51.0703 124.784 50.6562C124.784 50.3177 124.879 50.0182 125.069 49.7578C125.262 49.4974 125.524 49.293 125.854 49.1445C126.188 48.9961 126.565 48.9219 126.987 48.9219C127.581 48.9219 128.047 49.0521 128.386 49.3125C128.727 49.5729 128.969 49.9167 129.112 50.3437ZM133.125 55.125C132.547 55.125 132.048 54.9974 131.629 54.7422C131.212 54.4844 130.891 54.125 130.664 53.6641C130.44 53.2005 130.328 52.6615 130.328 52.0469C130.328 51.4323 130.44 50.8906 130.664 50.4219C130.891 49.9505 131.206 49.5833 131.609 49.3203C132.016 49.0547 132.49 48.9219 133.031 48.9219C133.344 48.9219 133.652 48.974 133.957 49.0781C134.262 49.1823 134.539 49.3516 134.789 49.5859C135.039 49.8177 135.238 50.125 135.387 50.5078C135.535 50.8906 135.609 51.362 135.609 51.9219V52.3125H130.984V51.5156H134.672C134.672 51.1771 134.604 50.875 134.469 50.6094C134.336 50.3437 134.146 50.1341 133.898 49.9805C133.654 49.8268 133.365 49.75 133.031 49.75C132.664 49.75 132.346 49.8411 132.078 50.0234C131.813 50.2031 131.608 50.4375 131.465 50.7266C131.322 51.0156 131.25 51.3255 131.25 51.6562V52.1875C131.25 52.6406 131.328 53.0247 131.484 53.3398C131.643 53.6523 131.863 53.8906 132.145 54.0547C132.426 54.2161 132.753 54.2969 133.125 54.2969C133.367 54.2969 133.586 54.263 133.781 54.1953C133.979 54.125 134.15 54.0208 134.293 53.8828C134.436 53.7422 134.547 53.5677 134.625 53.3594L135.516 53.6094C135.422 53.9115 135.264 54.1771 135.043 54.4062C134.822 54.6328 134.548 54.8099 134.223 54.9375C133.897 55.0625 133.531 55.125 133.125 55.125ZM142.652 55.1094C142.116 55.1094 141.642 55.0143 141.23 54.8242C140.822 54.6315 140.503 54.3672 140.273 54.0312C140.044 53.6927 139.931 53.3073 139.934 52.875C139.931 52.5365 139.997 52.224 140.133 51.9375C140.268 51.6484 140.453 51.4076 140.688 51.2148C140.924 51.0195 141.189 50.8958 141.48 50.8438V50.7969C141.098 50.6979 140.793 50.4831 140.566 50.1523C140.34 49.819 140.228 49.4401 140.23 49.0156C140.228 48.6094 140.331 48.2461 140.539 47.9258C140.747 47.6055 141.034 47.3529 141.398 47.168C141.766 46.9831 142.184 46.8906 142.652 46.8906C143.116 46.8906 143.53 46.9831 143.895 47.168C144.259 47.3529 144.546 47.6055 144.754 47.9258C144.965 48.2461 145.072 48.6094 145.074 49.0156C145.072 49.4401 144.956 49.819 144.727 50.1523C144.5 50.4831 144.199 50.6979 143.824 50.7969V50.8438C144.113 50.8958 144.374 51.0195 144.605 51.2148C144.837 51.4076 145.022 51.6484 145.16 51.9375C145.298 52.224 145.368 52.5365 145.371 52.875C145.368 53.3073 145.251 53.6927 145.02 54.0312C144.79 54.3672 144.471 54.6315 144.063 54.8242C143.656 55.0143 143.186 55.1094 142.652 55.1094ZM142.652 54.25C143.014 54.25 143.327 54.1914 143.59 54.0742C143.853 53.957 144.056 53.7917 144.199 53.5781C144.342 53.3646 144.415 53.1146 144.418 52.8281C144.415 52.526 144.337 52.2591 144.184 52.0273C144.03 51.7956 143.82 51.6133 143.555 51.4805C143.292 51.3477 142.991 51.2812 142.652 51.2812C142.311 51.2812 142.007 51.3477 141.738 51.4805C141.473 51.6133 141.263 51.7956 141.109 52.0273C140.958 52.2591 140.884 52.526 140.887 52.8281C140.884 53.1146 140.953 53.3646 141.094 53.5781C141.237 53.7917 141.441 53.957 141.707 54.0742C141.973 54.1914 142.288 54.25 142.652 54.25ZM142.652 50.4531C142.939 50.4531 143.193 50.3958 143.414 50.2812C143.638 50.1667 143.814 50.0065 143.941 49.8008C144.069 49.5951 144.134 49.3542 144.137 49.0781C144.134 48.8073 144.07 48.5716 143.945 48.3711C143.82 48.168 143.647 48.0117 143.426 47.9023C143.204 47.7904 142.947 47.7344 142.652 47.7344C142.353 47.7344 142.091 47.7904 141.867 47.9023C141.643 48.0117 141.47 48.168 141.348 48.3711C141.225 48.5716 141.165 48.8073 141.168 49.0781C141.165 49.3542 141.227 49.5951 141.352 49.8008C141.479 50.0065 141.655 50.1667 141.879 50.2812C142.103 50.3958 142.361 50.4531 142.652 50.4531ZM149.431 55.1094C148.894 55.1094 148.42 55.0143 148.009 54.8242C147.6 54.6315 147.281 54.3672 147.052 54.0312C146.823 53.6927 146.709 53.3073 146.712 52.875C146.709 52.5365 146.776 52.224 146.911 51.9375C147.047 51.6484 147.231 51.4076 147.466 51.2148C147.703 51.0195 147.967 50.8958 148.259 50.8438V50.7969C147.876 50.6979 147.571 50.4831 147.345 50.1523C147.118 49.819 147.006 49.4401 147.009 49.0156C147.006 48.6094 147.109 48.2461 147.317 47.9258C147.526 47.6055 147.812 47.3529 148.177 47.168C148.544 46.9831 148.962 46.8906 149.431 46.8906C149.894 46.8906 150.308 46.9831 150.673 47.168C151.037 47.3529 151.324 47.6055 151.532 47.9258C151.743 48.2461 151.85 48.6094 151.853 49.0156C151.85 49.4401 151.734 49.819 151.505 50.1523C151.278 50.4831 150.978 50.6979 150.603 50.7969V50.8438C150.892 50.8958 151.152 51.0195 151.384 51.2148C151.616 51.4076 151.8 51.6484 151.938 51.9375C152.076 52.224 152.147 52.5365 152.149 52.875C152.147 53.3073 152.03 53.6927 151.798 54.0312C151.569 54.3672 151.25 54.6315 150.841 54.8242C150.435 55.0143 149.965 55.1094 149.431 55.1094ZM149.431 54.25C149.793 54.25 150.105 54.1914 150.368 54.0742C150.631 53.957 150.834 53.7917 150.978 53.5781C151.121 53.3646 151.194 53.1146 151.196 52.8281C151.194 52.526 151.116 52.2591 150.962 52.0273C150.808 51.7956 150.599 51.6133 150.333 51.4805C150.07 51.3477 149.769 51.2812 149.431 51.2812C149.09 51.2812 148.785 51.3477 148.517 51.4805C148.251 51.6133 148.041 51.7956 147.888 52.0273C147.737 52.2591 147.662 52.526 147.665 52.8281C147.662 53.1146 147.731 53.3646 147.872 53.5781C148.015 53.7917 148.22 53.957 148.485 54.0742C148.751 54.1914 149.066 54.25 149.431 54.25ZM149.431 50.4531C149.717 50.4531 149.971 50.3958 150.192 50.2812C150.416 50.1667 150.592 50.0065 150.72 49.8008C150.847 49.5951 150.912 49.3542 150.915 49.0781C150.912 48.8073 150.849 48.5716 150.724 48.3711C150.599 48.168 150.425 48.0117 150.204 47.9023C149.983 47.7904 149.725 47.7344 149.431 47.7344C149.131 47.7344 148.869 47.7904 148.646 47.9023C148.422 48.0117 148.248 48.168 148.126 48.3711C148.004 48.5716 147.944 48.8073 147.946 49.0781C147.944 49.3542 148.005 49.5951 148.13 49.8008C148.257 50.0065 148.433 50.1667 148.657 50.2812C148.881 50.3958 149.139 50.4531 149.431 50.4531ZM158.1 44.4219V57.5781H157.318V44.4219H158.1ZM170.323 51C170.323 51.8437 170.171 52.5729 169.866 53.1875C169.562 53.8021 169.144 54.276 168.612 54.6094C168.081 54.9427 167.474 55.1094 166.792 55.1094C166.11 55.1094 165.503 54.9427 164.972 54.6094C164.44 54.276 164.022 53.8021 163.718 53.1875C163.413 52.5729 163.261 51.8437 163.261 51C163.261 50.1562 163.413 49.4271 163.718 48.8125C164.022 48.1979 164.44 47.724 164.972 47.3906C165.503 47.0573 166.11 46.8906 166.792 46.8906C167.474 46.8906 168.081 47.0573 168.612 47.3906C169.144 47.724 169.562 48.1979 169.866 48.8125C170.171 49.4271 170.323 50.1562 170.323 51ZM169.386 51C169.386 50.3073 169.27 49.7227 169.038 49.2461C168.809 48.7695 168.498 48.4089 168.104 48.1641C167.714 47.9193 167.276 47.7969 166.792 47.7969C166.308 47.7969 165.869 47.9193 165.476 48.1641C165.085 48.4089 164.774 48.7695 164.542 49.2461C164.313 49.7227 164.198 50.3073 164.198 51C164.198 51.6927 164.313 52.2773 164.542 52.7539C164.774 53.2305 165.085 53.5911 165.476 53.8359C165.869 54.0807 166.308 54.2031 166.792 54.2031C167.276 54.2031 167.714 54.0807 168.104 53.8359C168.498 53.5911 168.809 53.2305 169.038 52.7539C169.27 52.2773 169.386 51.6927 169.386 51ZM177.421 49.5C177.335 49.237 177.222 49.0013 177.081 48.793C176.943 48.582 176.778 48.4023 176.585 48.2539C176.395 48.1055 176.179 47.9922 175.937 47.9141C175.694 47.8359 175.429 47.7969 175.14 47.7969C174.666 47.7969 174.235 47.9193 173.847 48.1641C173.459 48.4089 173.15 48.7695 172.921 49.2461C172.692 49.7227 172.577 50.3073 172.577 51C172.577 51.6927 172.693 52.2773 172.925 52.7539C173.157 53.2305 173.47 53.5911 173.866 53.8359C174.262 54.0807 174.707 54.2031 175.202 54.2031C175.66 54.2031 176.064 54.1055 176.413 53.9102C176.765 53.7122 177.038 53.4336 177.233 53.0742C177.431 52.7122 177.53 52.2865 177.53 51.7969L177.827 51.8594H175.421V51H178.468V51.8594C178.468 52.5182 178.327 53.0911 178.046 53.5781C177.767 54.0651 177.382 54.4427 176.89 54.7109C176.4 54.9766 175.838 55.1094 175.202 55.1094C174.494 55.1094 173.871 54.9427 173.335 54.6094C172.801 54.276 172.384 53.8021 172.085 53.1875C171.788 52.5729 171.64 51.8437 171.64 51C171.64 50.3672 171.724 49.7982 171.894 49.293C172.065 48.7852 172.308 48.3529 172.62 47.9961C172.933 47.6393 173.302 47.3659 173.729 47.1758C174.157 46.9857 174.627 46.8906 175.14 46.8906C175.562 46.8906 175.955 46.9544 176.319 47.082C176.687 47.207 177.013 47.3854 177.3 47.6172C177.589 47.8464 177.83 48.1211 178.022 48.4414C178.215 48.7591 178.348 49.112 178.421 49.5H177.421ZM183.439 50.5703V51.4297H179.939V50.5703H183.439ZM187.655 55.1094C187.067 55.1094 186.565 54.9492 186.151 54.6289C185.737 54.306 185.421 53.8385 185.202 53.2266C184.983 52.612 184.874 51.8698 184.874 51C184.874 50.1354 184.983 49.3971 185.202 48.7852C185.424 48.1706 185.741 47.7018 186.155 47.3789C186.572 47.0534 187.072 46.8906 187.655 46.8906C188.239 46.8906 188.737 47.0534 189.151 47.3789C189.568 47.7018 189.886 48.1706 190.104 48.7852C190.326 49.3971 190.437 50.1354 190.437 51C190.437 51.8698 190.327 52.612 190.108 53.2266C189.89 53.8385 189.573 54.306 189.159 54.6289C188.745 54.9492 188.244 55.1094 187.655 55.1094ZM187.655 54.25C188.239 54.25 188.692 53.9687 189.015 53.4062C189.338 52.8437 189.499 52.0417 189.499 51C189.499 50.3073 189.425 49.7174 189.276 49.2305C189.131 48.7435 188.92 48.3724 188.644 48.1172C188.37 47.862 188.041 47.7344 187.655 47.7344C187.077 47.7344 186.625 48.0195 186.3 48.5898C185.974 49.1576 185.812 49.9609 185.812 51C185.812 51.6927 185.884 52.2812 186.03 52.7656C186.176 53.25 186.386 53.6185 186.659 53.8711C186.935 54.1237 187.267 54.25 187.655 54.25ZM194.733 47V55H193.765V48.0156H193.718L191.765 49.3125V48.3281L193.765 47H194.733Z" fill="#636363"/>
<path fill-rule="evenodd" clip-rule="evenodd" d="M217.707 51L218.382 50.3252C219.418 49.2892 220 47.8839 220 46.4187C220 45.9113 219.589 45.5 219.081 45.5H212.919C212.411 45.5 212 45.9113 212 46.4187C212 47.8839 212.582 49.2892 213.618 50.3252L214.293 51L213.618 51.6748C212.582 52.7108 212 54.1161 212 55.5813C212 56.0887 212.411 56.5 212.919 56.5H219.081C219.589 56.5 220 56.0887 220 55.5813C220 54.1161 219.418 52.7108 218.382 51.6748L217.707 51ZM216.5 50.4995C216.588 50.4995 216.632 50.4996 216.677 50.4913C216.744 50.479 216.814 50.45 216.87 50.4114C216.907 50.3854 216.938 50.3546 217 50.2929L217.675 49.6181C218.31 48.9825 218.737 48.1772 218.912 47.3087C218.958 47.0797 218.981 46.9651 218.936 46.8367C218.901 46.7358 218.809 46.6228 218.717 46.5688C218.599 46.5 218.461 46.5 218.185 46.5H213.815C213.539 46.5 213.401 46.5 213.283 46.5688C213.191 46.6228 213.099 46.7358 213.064 46.8367C213.019 46.9651 213.042 47.0797 213.088 47.3087C213.263 48.1772 213.69 48.9825 214.325 49.6181L215 50.2929C215.061 50.3539 215.092 50.3844 215.129 50.4101C215.185 50.4493 215.256 50.4785 215.324 50.4909C215.368 50.499 215.411 50.499 215.498 50.499L216.5 50.4995Z" fill="#636363"/>
<path d="M226.297 47L228.672 53.7344H228.766L231.141 47H232.156L229.219 55H228.219L225.281 47H226.297ZM234.826 55.125C234.285 55.125 233.809 54.9961 233.4 54.7383C232.994 54.4805 232.677 54.1198 232.447 53.6562C232.221 53.1927 232.108 52.651 232.108 52.0312C232.108 51.4062 232.221 50.8607 232.447 50.3945C232.677 49.9284 232.994 49.5664 233.4 49.3086C233.809 49.0508 234.285 48.9219 234.826 48.9219C235.368 48.9219 235.842 49.0508 236.248 49.3086C236.657 49.5664 236.975 49.9284 237.201 50.3945C237.43 50.8607 237.545 51.4062 237.545 52.0312C237.545 52.651 237.43 53.1927 237.201 53.6562C236.975 54.1198 236.657 54.4805 236.248 54.7383C235.842 54.9961 235.368 55.125 234.826 55.125ZM234.826 54.2969C235.238 54.2969 235.576 54.1914 235.842 53.9805C236.108 53.7695 236.304 53.4922 236.432 53.1484C236.559 52.8047 236.623 52.4323 236.623 52.0312C236.623 51.6302 236.559 51.2565 236.432 50.9102C236.304 50.5638 236.108 50.2839 235.842 50.0703C235.576 49.8568 235.238 49.75 234.826 49.75C234.415 49.75 234.076 49.8568 233.811 50.0703C233.545 50.2839 233.348 50.5638 233.221 50.9102C233.093 51.2565 233.029 51.6302 233.029 52.0312C233.029 52.4323 233.093 52.8047 233.221 53.1484C233.348 53.4922 233.545 53.7695 233.811 53.9805C234.076 54.1914 234.415 54.2969 234.826 54.2969ZM238.622 55V49H239.513V49.9062H239.575C239.685 49.6094 239.883 49.3685 240.169 49.1836C240.456 48.9987 240.778 48.9062 241.138 48.9062C241.206 48.9062 241.29 48.9076 241.392 48.9102C241.493 48.9128 241.57 48.9167 241.622 48.9219V49.8594C241.591 49.8516 241.519 49.8398 241.407 49.8242C241.298 49.806 241.182 49.7969 241.06 49.7969C240.768 49.7969 240.508 49.8581 240.278 49.9805C240.052 50.1003 239.872 50.2669 239.739 50.4805C239.609 50.6914 239.544 50.9323 239.544 51.2031V55H238.622ZM247.633 55.1094C247.175 55.1094 246.762 55.0182 246.395 54.8359C246.028 54.6536 245.733 54.4036 245.512 54.0859C245.291 53.7682 245.17 53.4062 245.149 53H246.086C246.123 53.362 246.287 53.6615 246.578 53.8984C246.873 54.1328 247.224 54.25 247.633 54.25C247.961 54.25 248.253 54.1732 248.508 54.0195C248.766 53.8659 248.968 53.6549 249.114 53.3867C249.262 53.1159 249.336 52.8099 249.336 52.4687C249.336 52.1198 249.259 51.8086 249.106 51.5352C248.955 51.2591 248.746 51.0417 248.481 50.8828C248.215 50.724 247.912 50.6432 247.571 50.6406C247.326 50.638 247.075 50.6758 246.817 50.7539C246.559 50.8294 246.347 50.9271 246.18 51.0469L245.274 50.9375L245.758 47H249.914V47.8594H246.571L246.289 50.2187H246.336C246.5 50.0885 246.706 49.9805 246.953 49.8945C247.201 49.8086 247.459 49.7656 247.727 49.7656C248.216 49.7656 248.653 49.8828 249.035 50.1172C249.421 50.349 249.723 50.6667 249.942 51.0703C250.163 51.474 250.274 51.9349 250.274 52.4531C250.274 52.9635 250.159 53.4193 249.93 53.8203C249.703 54.2187 249.391 54.5339 248.993 54.7656C248.594 54.9948 248.141 55.1094 247.633 55.1094ZM253.962 47.8594V47H259.962V47.8594H257.447V55H256.478V47.8594H253.962ZM261.952 55.1406C261.572 55.1406 261.226 55.069 260.917 54.9258C260.607 54.7799 260.361 54.5703 260.178 54.2969C259.996 54.0208 259.905 53.6875 259.905 53.2969C259.905 52.9531 259.973 52.6745 260.108 52.4609C260.243 52.2448 260.424 52.0755 260.651 51.9531C260.877 51.8307 261.127 51.7396 261.401 51.6797C261.677 51.6172 261.954 51.5677 262.233 51.5313C262.598 51.4844 262.893 51.4492 263.12 51.4258C263.349 51.3997 263.516 51.3568 263.62 51.2969C263.726 51.237 263.78 51.1328 263.78 50.9844V50.9531C263.78 50.5677 263.674 50.2682 263.463 50.0547C263.255 49.8411 262.939 49.7344 262.514 49.7344C262.074 49.7344 261.729 49.8307 261.479 50.0234C261.229 50.2161 261.053 50.4219 260.952 50.6406L260.077 50.3281C260.233 49.9635 260.441 49.6797 260.702 49.4766C260.965 49.2708 261.251 49.1276 261.561 49.0469C261.874 48.9635 262.181 48.9219 262.483 48.9219C262.676 48.9219 262.897 48.9453 263.147 48.9922C263.4 49.0365 263.643 49.1289 263.877 49.2695C264.114 49.4102 264.311 49.6224 264.467 49.9062C264.624 50.1901 264.702 50.5703 264.702 51.0469V55H263.78V54.1875H263.733C263.67 54.3177 263.566 54.457 263.42 54.6055C263.275 54.7539 263.081 54.8802 262.838 54.9844C262.596 55.0885 262.301 55.1406 261.952 55.1406ZM262.092 54.3125C262.457 54.3125 262.764 54.2409 263.014 54.0977C263.267 53.9544 263.457 53.7695 263.585 53.543C263.715 53.3164 263.78 53.0781 263.78 52.8281V51.9844C263.741 52.0312 263.655 52.0742 263.522 52.1133C263.392 52.1497 263.241 52.1823 263.069 52.2109C262.9 52.237 262.734 52.2604 262.573 52.2812C262.414 52.2995 262.285 52.3151 262.186 52.3281C261.947 52.3594 261.723 52.4102 261.514 52.4805C261.308 52.5482 261.142 52.651 261.014 52.7891C260.889 52.9245 260.827 53.1094 260.827 53.3437C260.827 53.6641 260.945 53.9062 261.182 54.0703C261.422 54.2318 261.725 54.3125 262.092 54.3125ZM268.476 57.375C268.031 57.375 267.648 57.3177 267.328 57.2031C267.007 57.0911 266.741 56.9427 266.527 56.7578C266.316 56.5755 266.148 56.3802 266.023 56.1719L266.757 55.6563C266.841 55.7656 266.946 55.8906 267.074 56.0312C267.201 56.1745 267.376 56.2982 267.597 56.4023C267.821 56.5091 268.114 56.5625 268.476 56.5625C268.961 56.5625 269.36 56.4453 269.675 56.2109C269.991 55.9766 270.148 55.6094 270.148 55.1094V53.8906H270.07C270.002 54 269.906 54.1354 269.781 54.2969C269.659 54.4557 269.481 54.5977 269.25 54.7227C269.02 54.8451 268.711 54.9062 268.32 54.9062C267.836 54.9062 267.401 54.7917 267.015 54.5625C266.632 54.3333 266.329 54 266.105 53.5625C265.884 53.125 265.773 52.5937 265.773 51.9687C265.773 51.3542 265.881 50.819 266.097 50.3633C266.313 49.9049 266.614 49.5508 267 49.3008C267.385 49.0482 267.83 48.9219 268.336 48.9219C268.726 48.9219 269.036 48.987 269.265 49.1172C269.497 49.2448 269.674 49.3906 269.797 49.5547C269.922 49.7161 270.018 49.849 270.086 49.9531H270.179V49H271.07V55.1719C271.07 55.6875 270.953 56.1068 270.718 56.4297C270.487 56.7552 270.174 56.9935 269.781 57.1445C269.39 57.2982 268.955 57.375 268.476 57.375ZM268.445 54.0781C268.815 54.0781 269.127 53.9935 269.382 53.8242C269.638 53.6549 269.832 53.4115 269.964 53.0938C270.097 52.776 270.164 52.3958 270.164 51.9531C270.164 51.5208 270.099 51.1393 269.968 50.8086C269.838 50.4779 269.645 50.2187 269.39 50.0312C269.135 49.8437 268.82 49.75 268.445 49.75C268.054 49.75 267.729 49.849 267.468 50.0469C267.211 50.2448 267.017 50.5104 266.886 50.8438C266.759 51.1771 266.695 51.5469 266.695 51.9531C266.695 52.3698 266.76 52.7383 266.89 53.0586C267.023 53.3763 267.218 53.6263 267.476 53.8086C267.737 53.9883 268.06 54.0781 268.445 54.0781ZM274.943 55.125C274.365 55.125 273.866 54.9974 273.447 54.7422C273.03 54.4844 272.709 54.125 272.482 53.6641C272.258 53.2005 272.146 52.6615 272.146 52.0469C272.146 51.4323 272.258 50.8906 272.482 50.4219C272.709 49.9505 273.024 49.5833 273.427 49.3203C273.834 49.0547 274.308 48.9219 274.849 48.9219C275.162 48.9219 275.47 48.974 275.775 49.0781C276.08 49.1823 276.357 49.3516 276.607 49.5859C276.857 49.8177 277.056 50.125 277.205 50.5078C277.353 50.8906 277.427 51.362 277.427 51.9219V52.3125H272.802V51.5156H276.49C276.49 51.1771 276.422 50.875 276.287 50.6094C276.154 50.3437 275.964 50.1341 275.717 49.9805C275.472 49.8268 275.183 49.75 274.849 49.75C274.482 49.75 274.164 49.8411 273.896 50.0234C273.631 50.2031 273.426 50.4375 273.283 50.7266C273.14 51.0156 273.068 51.3255 273.068 51.6562V52.1875C273.068 52.6406 273.146 53.0247 273.302 53.3398C273.461 53.6523 273.681 53.8906 273.963 54.0547C274.244 54.2161 274.571 54.2969 274.943 54.2969C275.185 54.2969 275.404 54.263 275.599 54.1953C275.797 54.125 275.968 54.0208 276.111 53.8828C276.254 53.7422 276.365 53.5677 276.443 53.3594L277.334 53.6094C277.24 53.9115 277.082 54.1771 276.861 54.4062C276.64 54.6328 276.366 54.8099 276.041 54.9375C275.715 55.0625 275.349 55.125 274.943 55.125ZM279.422 51.3906V55H278.5V49H279.39V49.9375H279.469C279.609 49.6328 279.823 49.388 280.109 49.2031C280.396 49.0156 280.765 48.9219 281.219 48.9219C281.625 48.9219 281.98 49.0052 282.285 49.1719C282.59 49.3359 282.827 49.5859 282.996 49.9219C283.165 50.2552 283.25 50.6771 283.25 51.1875V55H282.328V51.25C282.328 50.7786 282.206 50.4115 281.961 50.1484C281.716 49.8828 281.38 49.75 280.953 49.75C280.659 49.75 280.396 49.8138 280.164 49.9414C279.935 50.069 279.754 50.2552 279.621 50.5C279.488 50.7448 279.422 51.0417 279.422 51.3906Z" fill="#636363"/>
<rect x="299" y="23" width="80" height="32" rx="5" fill="#E4783A"/>
<path d="M317.009 33.8182L319.842 42.1108H319.957L322.79 33.8182H324.451L320.787 44H319.012L315.348 33.8182H317.009ZM328.328 44.1541C327.575 44.1541 326.927 43.9934 326.384 43.6719C325.843 43.3471 325.426 42.8913 325.131 42.3047C324.839 41.7147 324.693 41.0237 324.693 40.2315C324.693 39.4493 324.839 38.7599 325.131 38.1634C325.426 37.5668 325.837 37.1011 326.364 36.7663C326.894 36.4316 327.514 36.2642 328.223 36.2642C328.654 36.2642 329.072 36.3355 329.476 36.478C329.88 36.6205 330.243 36.8442 330.565 37.1491C330.886 37.4541 331.14 37.8501 331.325 38.3374C331.511 38.8213 331.604 39.4096 331.604 40.1023V40.6293H325.534V39.5156H330.147C330.147 39.1245 330.068 38.7782 329.909 38.4766C329.749 38.1716 329.526 37.9313 329.237 37.7557C328.952 37.58 328.618 37.4922 328.233 37.4922C327.816 37.4922 327.451 37.5949 327.139 37.8004C326.831 38.0026 326.593 38.2678 326.423 38.5959C326.258 38.9207 326.175 39.2737 326.175 39.6548V40.5249C326.175 41.0353 326.264 41.4695 326.443 41.8274C326.626 42.1854 326.879 42.4588 327.204 42.6477C327.529 42.8333 327.908 42.9261 328.343 42.9261C328.624 42.9261 328.881 42.8864 329.113 42.8068C329.345 42.724 329.546 42.6013 329.715 42.4389C329.884 42.2765 330.013 42.076 330.102 41.8374L331.509 42.0909C331.397 42.5052 331.195 42.8681 330.903 43.1797C330.615 43.4879 330.252 43.7282 329.814 43.9006C329.38 44.0696 328.884 44.1541 328.328 44.1541ZM333.253 44V36.3636H334.69V37.5767H334.77C334.909 37.1657 335.154 36.8426 335.505 36.6072C335.86 36.3686 336.261 36.2493 336.708 36.2493C336.801 36.2493 336.911 36.2526 337.037 36.2592C337.166 36.2659 337.267 36.2741 337.34 36.2841V37.706C337.28 37.6894 337.174 37.6712 337.022 37.6513C336.869 37.6281 336.717 37.6165 336.564 37.6165C336.213 37.6165 335.9 37.6911 335.625 37.8402C335.353 37.986 335.137 38.1899 334.978 38.4517C334.819 38.7102 334.74 39.0052 334.74 39.3366V44H333.253ZM340.113 33.8182V44H338.626V33.8182H340.113ZM344.335 44.169C343.851 44.169 343.413 44.0795 343.022 43.9006C342.631 43.7183 342.321 43.4548 342.093 43.1101C341.867 42.7654 341.755 42.3428 341.755 41.8423C341.755 41.4115 341.837 41.0568 342.003 40.7784C342.169 40.5 342.393 40.2796 342.674 40.1172C342.956 39.9548 343.271 39.8321 343.619 39.7493C343.967 39.6664 344.322 39.6035 344.683 39.5604C345.14 39.5073 345.511 39.4643 345.797 39.4311C346.082 39.3946 346.289 39.3366 346.418 39.2571C346.547 39.1776 346.612 39.0483 346.612 38.8693V38.8345C346.612 38.4003 346.489 38.0639 346.244 37.8253C346.002 37.5866 345.641 37.4673 345.16 37.4673C344.66 37.4673 344.265 37.5784 343.977 37.8004C343.692 38.0192 343.495 38.2628 343.385 38.5312L341.988 38.2131C342.154 37.7491 342.396 37.3745 342.714 37.0895C343.036 36.8011 343.405 36.5923 343.823 36.4631C344.24 36.3305 344.68 36.2642 345.14 36.2642C345.445 36.2642 345.768 36.3007 346.11 36.3736C346.454 36.4432 346.776 36.5724 347.074 36.7614C347.376 36.9503 347.623 37.2204 347.815 37.5717C348.007 37.9197 348.103 38.3722 348.103 38.929V44H346.652V42.956H346.592C346.496 43.1482 346.352 43.3371 346.159 43.5227C345.967 43.7083 345.72 43.8625 345.419 43.9851C345.117 44.1077 344.756 44.169 344.335 44.169ZM344.658 42.9759C345.069 42.9759 345.42 42.8946 345.712 42.7322C346.007 42.5698 346.231 42.3577 346.383 42.0959C346.539 41.8307 346.617 41.5473 346.617 41.2457V40.2614C346.564 40.3144 346.461 40.3641 346.309 40.4105C346.159 40.4536 345.989 40.4917 345.797 40.5249C345.604 40.5547 345.417 40.5829 345.235 40.6094C345.052 40.6326 344.9 40.6525 344.777 40.669C344.489 40.7055 344.225 40.7668 343.987 40.853C343.752 40.9392 343.563 41.0634 343.42 41.2259C343.281 41.3849 343.211 41.5971 343.211 41.8622C343.211 42.2301 343.347 42.5085 343.619 42.6974C343.891 42.883 344.237 42.9759 344.658 42.9759ZM354.921 40.8331V36.3636H356.412V44H354.95V42.6776H354.871C354.695 43.0852 354.414 43.425 354.026 43.6967C353.641 43.9652 353.162 44.0994 352.589 44.0994C352.098 44.0994 351.664 43.9917 351.286 43.7763C350.912 43.5575 350.617 43.2344 350.401 42.8068C350.189 42.3793 350.083 41.8506 350.083 41.2209V36.3636H351.57V41.0419C351.57 41.5623 351.714 41.9766 352.002 42.2848C352.291 42.593 352.665 42.7472 353.126 42.7472C353.404 42.7472 353.681 42.6776 353.956 42.5384C354.235 42.3991 354.465 42.1887 354.647 41.907C354.833 41.6252 354.924 41.2673 354.921 40.8331ZM362.044 36.3636V37.5568H357.728V36.3636H362.044ZM358.912 44V35.4787C358.912 35.0014 359.016 34.6053 359.225 34.2905C359.434 33.9723 359.71 33.7353 360.055 33.5795C360.4 33.4205 360.774 33.3409 361.179 33.3409C361.477 33.3409 361.732 33.3658 361.944 33.4155C362.156 33.4619 362.314 33.505 362.417 33.5447L362.069 34.7479C361.999 34.728 361.909 34.7048 361.8 34.6783C361.691 34.6484 361.558 34.6335 361.402 34.6335C361.041 34.6335 360.783 34.723 360.627 34.902C360.474 35.081 360.398 35.3395 360.398 35.6776V44H358.912Z" fill="white"/>
</g>
<defs>
<filter id="filter0_dd_455_1229" x="0" y="21" width="37" height="37" filterUnits="userSpaceOnUse" color-interpolation-filters="sRGB">
<feFlood flood-opacity="0" result="BackgroundImageFix"/>
<feColorMatrix in="SourceAlpha" type="matrix" values="0 0 0 0 0 0 0 0 0 0 0 0 0 0 0 0 0 0 127 0" result="hardAlpha"/>
<feOffset dy="1"/>
<feGaussianBlur stdDeviation="2"/>
<feComposite in2="hardAlpha" operator="out"/>
<feColorMatrix type="matrix" values="0 0 0 0 0.0470588 0 0 0 0 0.0470588 0 0 0 0 0.0509804 0 0 0 0.05 0"/>
<feBlend mode="normal" in2="BackgroundImageFix" result="effect1_dropShadow_455_1229"/>
<feColorMatrix in="SourceAlpha" type="matrix" values="0 0 0 0 0 0 0 0 0 0 0 0 0 0 0 0 0 0 127 0" result="hardAlpha"/>
<feOffset dy="1"/>
<feGaussianBlur stdDeviation="2"/>
<feComposite in2="hardAlpha" operator="out"/>
<feColorMatrix type="matrix" values="0 0 0 0 0.0470588 0 0 0 0 0.0470588 0 0 0 0 0.0509804 0 0 0 0.1 0"/>
<feBlend mode="normal" in2="effect1_dropShadow_455_1229" result="effect2_dropShadow_455_1229"/>
<feBlend mode="normal" in="SourceGraphic" in2="effect2_dropShadow_455_1229" result="shape"/>
</filter>
<filter id="filter1_dd_455_1229" x="43" y="0" width="355" height="85" filterUnits="userSpaceOnUse" color-interpolation-filters="sRGB">
<feFlood flood-opacity="0" result="BackgroundImageFix"/>
<feColorMatrix in="SourceAlpha" type="matrix" values="0 0 0 0 0 0 0 0 0 0 0 0 0 0 0 0 0 0 127 0" result="hardAlpha"/>
<feMorphology radius="1" operator="erode" in="SourceAlpha" result="effect1_dropShadow_455_1229"/>
<feOffset dy="4"/>
<feGaussianBlur stdDeviation="2"/>
<feComposite in2="hardAlpha" operator="out"/>
<feColorMatrix type="matrix" values="0 0 0 0 0.0470588 0 0 0 0 0.0470588 0 0 0 0 0.0509804 0 0 0 0.05 0"/>
<feBlend mode="normal" in2="BackgroundImageFix" result="effect1_dropShadow_455_1229"/>
<feColorMatrix in="SourceAlpha" type="matrix" values="0 0 0 0 0 0 0 0 0 0 0 0 0 0 0 0 0 0 127 0" result="hardAlpha"/>
<feMorphology radius="1" operator="erode" in="SourceAlpha" result="effect2_dropShadow_455_1229"/>
<feOffset dy="4"/>
<feGaussianBlur stdDeviation="2"/>
<feComposite in2="hardAlpha" operator="out"/>
<feColorMatrix type="matrix" values="0 0 0 0 0.0470588 0 0 0 0 0.0470588 0 0 0 0 0.0509804 0 0 0 0.1 0"/>
<feBlend mode="normal" in2="effect1_dropShadow_455_1229" result="effect2_dropShadow_455_1229"/>
<feBlend mode="normal" in="SourceGraphic" in2="effect2_dropShadow_455_1229" result="shape"/>
</filter>
</defs>
</svg>
