<svg width="257" height="147" viewBox="0 0 257 147" fill="none" xmlns="http://www.w3.org/2000/svg">
<g filter="url(#filter0_dd_369_1025)">
<rect x="3" width="251" height="140" rx="12" fill="white"/>
<rect x="3.5" y="0.5" width="250" height="139" rx="11.5" stroke="#DFDFDF"/>
<path d="M35 32L39.5 36.5M35 32H32L31 29L32 28L35 29V32ZM48.259 28.741L45.6314 31.3686C45.2354 31.7646 45.0373 31.9627 44.9632 32.191C44.8979 32.3918 44.8979 32.6082 44.9632 32.809C45.0373 33.0373 45.2354 33.2354 45.6314 33.6314L45.8686 33.8686C46.2646 34.2646 46.4627 34.4627 46.691 34.5368C46.8918 34.6021 47.1082 34.6021 47.309 34.5368C47.5373 34.4627 47.7354 34.2646 48.1314 33.8686L50.5893 31.4107C50.854 32.0549 51 32.7604 51 33.5C51 36.5376 48.5376 39 45.5 39C45.1338 39 44.7759 38.9642 44.4298 38.8959C43.9436 38.8001 43.7005 38.7521 43.5532 38.7668C43.3965 38.7824 43.3193 38.8059 43.1805 38.8802C43.0499 38.9501 42.919 39.081 42.657 39.343L35.5 46.5C34.6716 47.3284 33.3284 47.3284 32.5 46.5C31.6716 45.6716 31.6716 44.3284 32.5 43.5L39.657 36.343C39.919 36.081 40.0499 35.9501 40.1198 35.8195C40.1941 35.6807 40.2176 35.6035 40.2332 35.4468C40.2479 35.2995 40.1999 35.0564 40.1041 34.5702C40.0358 34.2241 40 33.8662 40 33.5C40 30.4624 42.4624 28 45.5 28C46.5055 28 47.448 28.2698 48.259 28.741ZM41 40.9999L46.5 46.4999C47.3284 47.3283 48.6716 47.3283 49.5 46.4999C50.3284 45.6715 50.3284 44.3283 49.5 43.4999L44.9753 38.9753C44.655 38.945 44.3427 38.8872 44.0408 38.8043C43.6517 38.6975 43.2249 38.7751 42.9397 39.0603L41 40.9999Z" stroke="#353535" stroke-width="2" stroke-linecap="round" stroke-linejoin="round"/>
<path d="M217.709 38C217.709 38.4372 218.063 38.7917 218.5 38.7917C218.938 38.7917 219.292 38.4372 219.292 38C219.292 37.5628 218.938 37.2084 218.5 37.2084C218.063 37.2084 217.709 37.5628 217.709 38Z" fill="#353535"/>
<path d="M217.709 43.5417C217.709 43.9789 218.063 44.3334 218.5 44.3334C218.938 44.3334 219.292 43.9789 219.292 43.5417C219.292 43.1045 218.938 42.75 218.5 42.75C218.063 42.75 217.709 43.1045 217.709 43.5417Z" fill="#353535"/>
<path d="M217.709 32.4584C217.709 32.8956 218.063 33.25 218.5 33.25C218.938 33.25 219.292 32.8956 219.292 32.4584C219.292 32.0211 218.938 31.6667 218.5 31.6667C218.063 31.6667 217.709 32.0211 217.709 32.4584Z" fill="#353535"/>
<path d="M217.709 38C217.709 38.4372 218.063 38.7917 218.5 38.7917C218.938 38.7917 219.292 38.4372 219.292 38C219.292 37.5628 218.938 37.2084 218.5 37.2084C218.063 37.2084 217.709 37.5628 217.709 38Z" stroke="#353535" stroke-linecap="round" stroke-linejoin="round"/>
<path d="M217.709 43.5417C217.709 43.9789 218.063 44.3334 218.5 44.3334C218.938 44.3334 219.292 43.9789 219.292 43.5417C219.292 43.1045 218.938 42.75 218.5 42.75C218.063 42.75 217.709 43.1045 217.709 43.5417Z" stroke="#353535" stroke-linecap="round" stroke-linejoin="round"/>
<path d="M217.709 32.4584C217.709 32.8956 218.063 33.25 218.5 33.25C218.938 33.25 219.292 32.8956 219.292 32.4584C219.292 32.0211 218.938 31.6667 218.5 31.6667C218.063 31.6667 217.709 32.0211 217.709 32.4584Z" stroke="#353535" stroke-linecap="round" stroke-linejoin="round"/>
<path d="M30.0994 75V73.6832L36.9837 63.6094H30.0419V61.9091H39.3999V63.2259L32.5156 73.2997H39.4574V75H30.0994ZM48.0004 70.9283V65.1818H49.918V75H48.0387V73.2997H47.9364C47.7106 73.8239 47.3484 74.2607 46.8498 74.6101C46.3555 74.9553 45.7397 75.1278 45.0025 75.1278C44.3718 75.1278 43.8136 74.9893 43.3278 74.7124C42.8462 74.4311 42.467 74.0156 42.19 73.4659C41.9173 72.9162 41.7809 72.2365 41.7809 71.4268V65.1818H43.6921V71.1967C43.6921 71.8658 43.8775 72.3984 44.2482 72.7947C44.619 73.1911 45.1005 73.3892 45.6928 73.3892C46.0508 73.3892 46.4066 73.2997 46.7603 73.1207C47.1183 72.9418 47.4144 72.6712 47.6488 72.3089C47.8874 71.9467 48.0046 71.4865 48.0004 70.9283ZM59.8432 67.5788L58.111 67.8857C58.0385 67.6641 57.9235 67.4531 57.7658 67.2528C57.6124 67.0526 57.4036 66.8885 57.1394 66.7607C56.8752 66.6328 56.5449 66.5689 56.1486 66.5689C55.6074 66.5689 55.1557 66.6903 54.7935 66.9332C54.4313 67.1719 54.2502 67.4808 54.2502 67.8601C54.2502 68.1882 54.3716 68.4524 54.6145 68.6527C54.8574 68.853 55.2495 69.017 55.7907 69.1449L57.3503 69.5028C58.2537 69.7116 58.927 70.0334 59.3702 70.468C59.8134 70.9027 60.035 71.4673 60.035 72.1619C60.035 72.75 59.8645 73.2741 59.5236 73.7344C59.187 74.1903 58.7161 74.5483 58.111 74.8082C57.5101 75.0682 56.8134 75.1982 56.0208 75.1982C54.9213 75.1982 54.0243 74.9638 53.3297 74.495C52.6351 74.022 52.209 73.3509 52.0513 72.4815L53.8986 72.2003C54.0137 72.6818 54.2502 73.0462 54.6081 73.2933C54.9661 73.5362 55.4327 73.6577 56.008 73.6577C56.6344 73.6577 57.1351 73.5277 57.5101 73.2678C57.8851 73.0036 58.0726 72.6818 58.0726 72.3026C58.0726 71.9957 57.9576 71.7379 57.7275 71.5291C57.5016 71.3203 57.1543 71.1626 56.6855 71.0561L55.0236 70.6918C54.1074 70.483 53.4299 70.1506 52.9909 69.6946C52.5563 69.2386 52.339 68.6612 52.339 67.9624C52.339 67.3828 52.5009 66.8757 52.8248 66.4411C53.1486 66.0064 53.5961 65.6676 54.1671 65.4247C54.7381 65.1776 55.3922 65.054 56.1294 65.054C57.1905 65.054 58.0257 65.2841 58.6351 65.7443C59.2445 66.2003 59.6472 66.8118 59.8432 67.5788ZM66.7195 65.1818V66.7159H61.3565V65.1818H66.7195ZM62.7947 62.8295H64.706V72.1172C64.706 72.4879 64.7614 72.767 64.8722 72.9545C64.983 73.1378 65.1257 73.2635 65.3004 73.3317C65.4794 73.3956 65.6733 73.4276 65.8821 73.4276C66.0355 73.4276 66.1697 73.4169 66.2848 73.3956C66.3999 73.3743 66.4893 73.3572 66.5533 73.3445L66.8984 74.9233C66.7876 74.9659 66.63 75.0085 66.4254 75.0511C66.2209 75.098 65.9652 75.1236 65.6584 75.1278C65.1555 75.1364 64.6868 75.0469 64.2521 74.8594C63.8175 74.6719 63.4659 74.3821 63.1974 73.9901C62.929 73.598 62.7947 73.1058 62.7947 72.5135V62.8295ZM71.6909 75.2173C71.0687 75.2173 70.5062 75.1023 70.0034 74.8722C69.5005 74.6378 69.1021 74.299 68.8081 73.8558C68.5183 73.4126 68.3734 72.8693 68.3734 72.2259C68.3734 71.6719 68.4799 71.2159 68.693 70.858C68.9061 70.5 69.1937 70.2166 69.5559 70.0078C69.9181 69.799 70.323 69.6413 70.7704 69.5348C71.2179 69.4283 71.6738 69.3473 72.1383 69.2919C72.7264 69.2237 73.2037 69.1683 73.5701 69.1257C73.9366 69.0788 74.2029 69.0043 74.3691 68.902C74.5353 68.7997 74.6184 68.6335 74.6184 68.4034V68.3587C74.6184 67.8004 74.4608 67.3679 74.1454 67.0611C73.8343 66.7543 73.3699 66.6009 72.752 66.6009C72.1085 66.6009 71.6014 66.7436 71.2306 67.0291C70.8642 67.3104 70.6106 67.6236 70.47 67.9688L68.6738 67.5597C68.8869 66.9631 69.198 66.4815 69.6071 66.1151C70.0204 65.7443 70.4956 65.4759 71.0325 65.3097C71.5694 65.1392 72.1341 65.054 72.7264 65.054C73.1184 65.054 73.5339 65.1009 73.9728 65.1946C74.416 65.2841 74.8294 65.4503 75.2129 65.6932C75.6007 65.9361 75.9181 66.2834 76.1653 66.7351C76.4125 67.1825 76.536 67.7642 76.536 68.4801V75H74.6696V73.6577H74.5929C74.4693 73.9048 74.2839 74.1477 74.0368 74.3864C73.7896 74.625 73.4721 74.8232 73.0843 74.9808C72.6966 75.1385 72.2321 75.2173 71.6909 75.2173ZM72.1064 73.6832C72.6348 73.6832 73.0865 73.5788 73.4615 73.37C73.8407 73.1612 74.1284 72.8885 74.3244 72.5518C74.5247 72.2109 74.6248 71.8466 74.6248 71.4588V70.1932C74.5566 70.2614 74.4245 70.3253 74.2285 70.3849C74.0368 70.4403 73.8173 70.4893 73.5701 70.532C73.323 70.5703 73.0822 70.6065 72.8478 70.6406C72.6135 70.6705 72.4174 70.696 72.2598 70.7173C71.889 70.7642 71.5502 70.843 71.2434 70.9538C70.9409 71.0646 70.698 71.2244 70.5147 71.4332C70.3358 71.6378 70.2463 71.9105 70.2463 72.2514C70.2463 72.7244 70.421 73.0824 70.7704 73.3253C71.1199 73.5639 71.5652 73.6832 72.1064 73.6832ZM80.9929 69.1705V75H79.0817V65.1818H80.9162V66.7798H81.0376C81.2635 66.2599 81.6172 65.8423 82.0987 65.527C82.5845 65.2116 83.196 65.054 83.9332 65.054C84.6023 65.054 85.1882 65.1946 85.6911 65.4759C86.1939 65.7528 86.5838 66.1662 86.8608 66.7159C87.1378 67.2656 87.2763 67.9453 87.2763 68.755V75H85.3651V68.9851C85.3651 68.2734 85.1797 67.7173 84.8089 67.3168C84.4382 66.9119 83.929 66.7095 83.2812 66.7095C82.8381 66.7095 82.4439 66.8054 82.0987 66.9972C81.7578 67.1889 81.4872 67.4702 81.2869 67.8409C81.0909 68.2074 80.9929 68.6506 80.9929 69.1705ZM93.5149 75.1918C92.7223 75.1918 92.0149 74.9893 91.3928 74.5845C90.7749 74.1754 90.2891 73.5937 89.9354 72.8395C89.5859 72.081 89.4112 71.1712 89.4112 70.1101C89.4112 69.049 89.5881 68.1413 89.9418 67.3871C90.2997 66.6328 90.7898 66.0554 91.4119 65.6548C92.0341 65.2543 92.7393 65.054 93.5277 65.054C94.1371 65.054 94.6271 65.1562 94.9979 65.3608C95.3729 65.5611 95.6626 65.7955 95.8672 66.0639C96.076 66.3324 96.2379 66.5689 96.353 66.7734H96.468V61.9091H98.3793V75H96.5128V73.4723H96.353C96.2379 73.6811 96.0717 73.9197 95.8544 74.1882C95.6413 74.4567 95.3473 74.6911 94.9723 74.8913C94.5973 75.0916 94.1115 75.1918 93.5149 75.1918ZM93.9368 73.5618C94.4865 73.5618 94.951 73.4169 95.3303 73.1271C95.7138 72.8331 96.0036 72.4261 96.1996 71.9062C96.3999 71.3864 96.5 70.7812 96.5 70.0909C96.5 69.4091 96.402 68.8125 96.206 68.3011C96.0099 67.7898 95.7223 67.3913 95.343 67.1058C94.9638 66.8203 94.495 66.6776 93.9368 66.6776C93.3615 66.6776 92.8821 66.8267 92.4986 67.125C92.1151 67.4233 91.8253 67.8303 91.6293 68.3459C91.4375 68.8615 91.3416 69.4432 91.3416 70.0909C91.3416 70.7472 91.4396 71.3374 91.6357 71.8615C91.8317 72.3857 92.1214 72.8011 92.505 73.108C92.8928 73.4105 93.37 73.5618 93.9368 73.5618ZM108.464 67.5788L106.732 67.8857C106.66 67.6641 106.545 67.4531 106.387 67.2528C106.233 67.0526 106.025 66.8885 105.76 66.7607C105.496 66.6328 105.166 66.5689 104.77 66.5689C104.229 66.5689 103.777 66.6903 103.415 66.9332C103.052 67.1719 102.871 67.4808 102.871 67.8601C102.871 68.1882 102.993 68.4524 103.236 68.6527C103.479 68.853 103.871 69.017 104.412 69.1449L105.971 69.5028C106.875 69.7116 107.548 70.0334 107.991 70.468C108.434 70.9027 108.656 71.4673 108.656 72.1619C108.656 72.75 108.486 73.2741 108.145 73.7344C107.808 74.1903 107.337 74.5483 106.732 74.8082C106.131 75.0682 105.434 75.1982 104.642 75.1982C103.542 75.1982 102.645 74.9638 101.951 74.495C101.256 74.022 100.83 73.3509 100.672 72.4815L102.52 72.2003C102.635 72.6818 102.871 73.0462 103.229 73.2933C103.587 73.5362 104.054 73.6577 104.629 73.6577C105.256 73.6577 105.756 73.5277 106.131 73.2678C106.506 73.0036 106.694 72.6818 106.694 72.3026C106.694 71.9957 106.579 71.7379 106.349 71.5291C106.123 71.3203 105.775 71.1626 105.307 71.0561L103.645 70.6918C102.729 70.483 102.051 70.1506 101.612 69.6946C101.177 69.2386 100.96 68.6612 100.96 67.9624C100.96 67.3828 101.122 66.8757 101.446 66.4411C101.77 66.0064 102.217 65.6676 102.788 65.4247C103.359 65.1776 104.013 65.054 104.751 65.054C105.812 65.054 106.647 65.2841 107.256 65.7443C107.866 66.2003 108.268 66.8118 108.464 67.5788ZM110.911 75V61.9091H112.822V66.7734H112.937C113.048 66.5689 113.208 66.3324 113.417 66.0639C113.625 65.7955 113.915 65.5611 114.286 65.3608C114.657 65.1562 115.147 65.054 115.756 65.054C116.549 65.054 117.256 65.2543 117.878 65.6548C118.5 66.0554 118.988 66.6328 119.342 67.3871C119.7 68.1413 119.879 69.049 119.879 70.1101C119.879 71.1712 119.702 72.081 119.348 72.8395C118.995 73.5937 118.509 74.1754 117.891 74.5845C117.273 74.9893 116.568 75.1918 115.775 75.1918C115.179 75.1918 114.691 75.0916 114.311 74.8913C113.936 74.6911 113.642 74.4567 113.429 74.1882C113.216 73.9197 113.052 73.6811 112.937 73.4723H112.777V75H110.911ZM112.784 70.0909C112.784 70.7812 112.884 71.3864 113.084 71.9062C113.284 72.4261 113.574 72.8331 113.953 73.1271C114.333 73.4169 114.797 73.5618 115.347 73.5618C115.918 73.5618 116.395 73.4105 116.779 73.108C117.162 72.8011 117.452 72.3857 117.648 71.8615C117.848 71.3374 117.949 70.7472 117.949 70.0909C117.949 69.4432 117.85 68.8615 117.654 68.3459C117.463 67.8303 117.173 67.4233 116.785 67.125C116.402 66.8267 115.922 66.6776 115.347 66.6776C114.793 66.6776 114.324 66.8203 113.941 67.1058C113.561 67.3913 113.274 67.7898 113.078 68.3011C112.882 68.8125 112.784 69.4091 112.784 70.0909ZM126.257 75.1982C125.289 75.1982 124.456 74.9915 123.757 74.5781C123.063 74.1605 122.526 73.5746 122.146 72.8203C121.771 72.0618 121.584 71.1733 121.584 70.1548C121.584 69.1491 121.771 68.2628 122.146 67.4957C122.526 66.7287 123.054 66.13 123.732 65.6996C124.414 65.2692 125.21 65.054 126.122 65.054C126.676 65.054 127.213 65.1456 127.733 65.3288C128.253 65.5121 128.72 65.7997 129.133 66.1918C129.546 66.5838 129.872 67.093 130.111 67.7195C130.35 68.3416 130.469 69.098 130.469 69.9886V70.6662H122.664V69.2344H128.596C128.596 68.7315 128.494 68.2862 128.289 67.8984C128.085 67.5064 127.797 67.1974 127.426 66.9716C127.06 66.7457 126.629 66.6328 126.135 66.6328C125.598 66.6328 125.129 66.7649 124.729 67.0291C124.333 67.2891 124.026 67.63 123.808 68.0518C123.595 68.4695 123.489 68.9233 123.489 69.4134V70.532C123.489 71.1882 123.604 71.7464 123.834 72.2067C124.068 72.6669 124.394 73.0185 124.812 73.2614C125.23 73.5 125.718 73.6193 126.276 73.6193C126.638 73.6193 126.968 73.5682 127.267 73.4659C127.565 73.3594 127.823 73.2017 128.04 72.9929C128.257 72.7841 128.423 72.5263 128.539 72.2195L130.347 72.5455C130.203 73.0781 129.943 73.5447 129.568 73.9453C129.197 74.3416 128.73 74.6506 128.168 74.8722C127.61 75.0895 126.972 75.1982 126.257 75.1982ZM134.7 75L131.811 65.1818H133.786L135.71 72.392H135.806L137.737 65.1818H139.712L141.629 72.3601H141.725L143.637 65.1818H145.612L142.729 75H140.779L138.785 67.9112H138.638L136.644 75H134.7ZM151.358 75.1982C150.391 75.1982 149.558 74.9915 148.859 74.5781C148.164 74.1605 147.627 73.5746 147.248 72.8203C146.873 72.0618 146.686 71.1733 146.686 70.1548C146.686 69.1491 146.873 68.2628 147.248 67.4957C147.627 66.7287 148.156 66.13 148.833 65.6996C149.515 65.2692 150.312 65.054 151.224 65.054C151.778 65.054 152.315 65.1456 152.835 65.3288C153.355 65.5121 153.821 65.7997 154.235 66.1918C154.648 66.5838 154.974 67.093 155.213 67.7195C155.451 68.3416 155.57 69.098 155.57 69.9886V70.6662H147.766V69.2344H153.698C153.698 68.7315 153.595 68.2862 153.391 67.8984C153.186 67.5064 152.899 67.1974 152.528 66.9716C152.161 66.7457 151.731 66.6328 151.237 66.6328C150.7 66.6328 150.231 66.7649 149.83 67.0291C149.434 67.2891 149.127 67.63 148.91 68.0518C148.697 68.4695 148.59 68.9233 148.59 69.4134V70.532C148.59 71.1882 148.705 71.7464 148.936 72.2067C149.17 72.6669 149.496 73.0185 149.914 73.2614C150.331 73.5 150.819 73.6193 151.377 73.6193C151.74 73.6193 152.07 73.5682 152.368 73.4659C152.666 73.3594 152.924 73.2017 153.142 72.9929C153.359 72.7841 153.525 72.5263 153.64 72.2195L155.449 72.5455C155.304 73.0781 155.044 73.5447 154.669 73.9453C154.298 74.3416 153.832 74.6506 153.269 74.8722C152.711 75.0895 152.074 75.1982 151.358 75.1982ZM157.691 75V65.1818H159.538V66.7415H159.641C159.82 66.2131 160.135 65.7976 160.587 65.495C161.043 65.1882 161.558 65.0348 162.134 65.0348C162.253 65.0348 162.393 65.0391 162.555 65.0476C162.722 65.0561 162.852 65.0668 162.945 65.0795V66.9077C162.869 66.8864 162.732 66.8629 162.536 66.8374C162.34 66.8075 162.144 66.7926 161.948 66.7926C161.496 66.7926 161.094 66.8885 160.74 67.0803C160.391 67.2678 160.114 67.5298 159.909 67.8665C159.705 68.1989 159.602 68.5781 159.602 69.0043V75H157.691ZM169.762 65.1818V66.7159H164.4V65.1818H169.762ZM165.838 62.8295H167.749V72.1172C167.749 72.4879 167.804 72.767 167.915 72.9545C168.026 73.1378 168.169 73.2635 168.343 73.3317C168.522 73.3956 168.716 73.4276 168.925 73.4276C169.078 73.4276 169.213 73.4169 169.328 73.3956C169.443 73.3743 169.532 73.3572 169.596 73.3445L169.941 74.9233C169.831 74.9659 169.673 75.0085 169.468 75.0511C169.264 75.098 169.008 75.1236 168.701 75.1278C168.199 75.1364 167.73 75.0469 167.295 74.8594C166.86 74.6719 166.509 74.3821 166.24 73.9901C165.972 73.598 165.838 73.1058 165.838 72.5135V62.8295ZM178.096 70.9283V65.1818H180.014V75H178.134V73.2997H178.032C177.806 73.8239 177.444 74.2607 176.945 74.6101C176.451 74.9553 175.835 75.1278 175.098 75.1278C174.468 75.1278 173.909 74.9893 173.423 74.7124C172.942 74.4311 172.563 74.0156 172.286 73.4659C172.013 72.9162 171.877 72.2365 171.877 71.4268V65.1818H173.788V71.1967C173.788 71.8658 173.973 72.3984 174.344 72.7947C174.715 73.1911 175.196 73.3892 175.789 73.3892C176.146 73.3892 176.502 73.2997 176.856 73.1207C177.214 72.9418 177.51 72.6712 177.744 72.3089C177.983 71.9467 178.1 71.4865 178.096 70.9283ZM184.493 69.1705V75H182.582V65.1818H184.416V66.7798H184.538C184.763 66.2599 185.117 65.8423 185.599 65.527C186.085 65.2116 186.696 65.054 187.433 65.054C188.102 65.054 188.688 65.1946 189.191 65.4759C189.694 65.7528 190.084 66.1662 190.361 66.7159C190.638 67.2656 190.776 67.9453 190.776 68.755V75H188.865V68.9851C188.865 68.2734 188.68 67.7173 188.309 67.3168C187.938 66.9119 187.429 66.7095 186.781 66.7095C186.338 66.7095 185.944 66.8054 185.599 66.9972C185.258 67.1889 184.987 67.4702 184.787 67.8409C184.591 68.2074 184.493 68.6506 184.493 69.1705ZM197.456 78.8864C196.676 78.8864 196.005 78.7841 195.442 78.5795C194.884 78.375 194.428 78.1044 194.075 77.7678C193.721 77.4311 193.457 77.0625 193.282 76.6619L194.925 75.9844C195.04 76.1719 195.193 76.37 195.385 76.5788C195.581 76.7919 195.845 76.973 196.178 77.1222C196.514 77.2713 196.947 77.3459 197.475 77.3459C198.2 77.3459 198.798 77.169 199.271 76.8153C199.744 76.4659 199.981 75.9077 199.981 75.1406V73.2102H199.859C199.744 73.419 199.578 73.6513 199.361 73.907C199.148 74.1626 198.854 74.3842 198.479 74.5717C198.104 74.7592 197.616 74.853 197.015 74.853C196.239 74.853 195.54 74.6719 194.918 74.3097C194.3 73.9432 193.81 73.4041 193.448 72.6925C193.09 71.9766 192.911 71.0966 192.911 70.0526C192.911 69.0085 193.088 68.1136 193.442 67.3679C193.8 66.6222 194.29 66.0511 194.912 65.6548C195.534 65.2543 196.239 65.054 197.028 65.054C197.637 65.054 198.129 65.1562 198.504 65.3608C198.879 65.5611 199.171 65.7955 199.38 66.0639C199.593 66.3324 199.757 66.5689 199.872 66.7734H200.013V65.1818H201.886V75.2173C201.886 76.0611 201.69 76.7536 201.298 77.2947C200.906 77.8359 200.375 78.2365 199.706 78.4964C199.041 78.7564 198.291 78.8864 197.456 78.8864ZM197.437 73.2678C197.987 73.2678 198.451 73.1399 198.83 72.8842C199.214 72.6243 199.504 72.2536 199.7 71.772C199.9 71.2862 200 70.7045 200 70.027C200 69.3665 199.902 68.7848 199.706 68.282C199.51 67.7791 199.222 67.3871 198.843 67.1058C198.464 66.8203 197.995 66.6776 197.437 66.6776C196.862 66.6776 196.382 66.8267 195.999 67.125C195.615 67.419 195.325 67.8196 195.129 68.3267C194.938 68.8338 194.842 69.4006 194.842 70.027C194.842 70.6705 194.94 71.2351 195.136 71.7209C195.332 72.2067 195.621 72.5859 196.005 72.8587C196.393 73.1314 196.87 73.2678 197.437 73.2678Z" fill="#353535"/>
<path d="M41.1705 118.358C39.8239 118.349 38.5241 118.124 37.2713 117.68C36.027 117.237 34.9105 116.517 33.9219 115.52C32.9332 114.523 32.1491 113.202 31.5696 111.557C30.9986 109.912 30.7131 107.892 30.7131 105.497C30.7216 103.298 30.973 101.334 31.4673 99.6037C31.9702 97.8651 32.6861 96.3906 33.6151 95.1804C34.5526 93.9702 35.6733 93.0497 36.9773 92.419C38.2813 91.7798 39.7429 91.4602 41.3622 91.4602C43.1094 91.4602 44.652 91.8011 45.9901 92.483C47.3281 93.1562 48.402 94.0724 49.2116 95.2315C50.0298 96.3906 50.5241 97.6903 50.6946 99.1307H45.2358C45.0227 98.2188 44.5753 97.5028 43.8935 96.983C43.2116 96.4631 42.3679 96.2031 41.3622 96.2031C39.6577 96.2031 38.3622 96.9446 37.4759 98.4276C36.598 99.9105 36.1506 101.926 36.1335 104.474H36.3125C36.7045 103.699 37.233 103.038 37.8977 102.493C38.571 101.939 39.3338 101.517 40.1861 101.227C41.0469 100.929 41.9545 100.78 42.9091 100.78C44.4602 100.78 45.8409 101.146 47.0511 101.879C48.2614 102.604 49.2159 103.601 49.9148 104.871C50.6136 106.141 50.9631 107.594 50.9631 109.23C50.9631 111.003 50.5497 112.58 49.723 113.96C48.9048 115.341 47.7585 116.423 46.2841 117.207C44.8182 117.983 43.1136 118.366 41.1705 118.358ZM41.1449 114.011C41.9972 114.011 42.7599 113.807 43.4332 113.398C44.1065 112.989 44.6349 112.435 45.0185 111.736C45.402 111.037 45.5938 110.253 45.5938 109.384C45.5938 108.514 45.402 107.734 45.0185 107.044C44.6435 106.354 44.1236 105.804 43.4588 105.395C42.794 104.986 42.0355 104.781 41.1832 104.781C40.544 104.781 39.9517 104.901 39.4062 105.139C38.8693 105.378 38.3963 105.71 37.9872 106.136C37.5866 106.562 37.2713 107.057 37.0412 107.619C36.8111 108.173 36.696 108.766 36.696 109.396C36.696 110.24 36.8878 111.011 37.2713 111.71C37.6634 112.409 38.1918 112.967 38.8565 113.385C39.5298 113.803 40.2926 114.011 41.1449 114.011ZM64.4503 118.358C62.6435 118.358 61.0327 118.026 59.6179 117.361C58.2116 116.696 57.0952 115.78 56.2685 114.612C55.4418 113.445 55.0114 112.107 54.9773 110.598H60.3466C60.4063 111.612 60.8324 112.435 61.625 113.065C62.4176 113.696 63.3594 114.011 64.4503 114.011C65.3196 114.011 66.0866 113.82 66.7514 113.436C67.4247 113.044 67.9489 112.503 68.3239 111.812C68.7074 111.114 68.8991 110.312 68.8991 109.409C68.8991 108.489 68.7031 107.679 68.3111 106.98C67.9276 106.281 67.3949 105.736 66.7131 105.344C66.0313 104.952 65.2514 104.751 64.3736 104.743C63.6065 104.743 62.8608 104.901 62.1364 105.216C61.4205 105.531 60.8622 105.962 60.4616 106.507L55.5398 105.625L56.7798 91.8182H72.7855V96.3438H61.3438L60.6662 102.902H60.8196C61.2798 102.254 61.9744 101.717 62.9034 101.291C63.8324 100.865 64.8722 100.652 66.0227 100.652C67.5994 100.652 69.0057 101.023 70.2415 101.764C71.4773 102.506 72.4531 103.524 73.169 104.82C73.8849 106.107 74.2386 107.589 74.2301 109.268C74.2386 111.033 73.8295 112.601 73.0028 113.973C72.1847 115.337 71.0384 116.411 69.5639 117.195C68.098 117.97 66.3935 118.358 64.4503 118.358ZM92.4219 113.091V111.71C92.4219 110.662 92.6435 109.699 93.0866 108.821C93.5384 107.935 94.1903 107.227 95.0426 106.699C95.9034 106.162 96.9517 105.893 98.1875 105.893C99.4403 105.893 100.493 106.158 101.345 106.686C102.206 107.214 102.854 107.922 103.288 108.808C103.732 109.686 103.953 110.653 103.953 111.71V113.091C103.953 114.139 103.732 115.107 103.288 115.993C102.845 116.871 102.193 117.574 101.332 118.102C100.472 118.639 99.4233 118.908 98.1875 118.908C96.9347 118.908 95.8821 118.639 95.0298 118.102C94.1776 117.574 93.5298 116.871 93.0866 115.993C92.6435 115.107 92.4219 114.139 92.4219 113.091ZM96.142 111.71V113.091C96.142 113.696 96.2869 114.267 96.5767 114.804C96.875 115.341 97.4119 115.609 98.1875 115.609C98.9631 115.609 99.4915 115.345 99.7727 114.817C100.063 114.288 100.207 113.713 100.207 113.091V111.71C100.207 111.088 100.071 110.509 99.7983 109.972C99.5256 109.435 98.9886 109.166 98.1875 109.166C97.4205 109.166 96.8878 109.435 96.5895 109.972C96.2912 110.509 96.142 111.088 96.142 111.71ZM78.9858 98.108V96.7273C78.9858 95.6705 79.2116 94.7031 79.6634 93.8253C80.1151 92.9389 80.767 92.2315 81.6193 91.7031C82.4801 91.1747 83.5199 90.9105 84.7386 90.9105C86 90.9105 87.0568 91.1747 87.9091 91.7031C88.7614 92.2315 89.4091 92.9389 89.8523 93.8253C90.2955 94.7031 90.517 95.6705 90.517 96.7273V98.108C90.517 99.1648 90.2912 100.132 89.8395 101.01C89.3963 101.888 88.7443 102.591 87.8835 103.119C87.0313 103.639 85.983 103.899 84.7386 103.899C83.4943 103.899 82.4418 103.635 81.581 103.107C80.7287 102.57 80.081 101.866 79.6378 100.997C79.2031 100.119 78.9858 99.1562 78.9858 98.108ZM82.7315 96.7273V98.108C82.7315 98.7301 82.8764 99.3054 83.1662 99.8338C83.4645 100.362 83.9886 100.626 84.7386 100.626C85.5227 100.626 86.0554 100.362 86.3366 99.8338C86.6264 99.3054 86.7713 98.7301 86.7713 98.108V96.7273C86.7713 96.1051 86.6349 95.5256 86.3622 94.9886C86.0895 94.4517 85.5483 94.1832 84.7386 94.1832C83.9801 94.1832 83.456 94.456 83.1662 95.0014C82.8764 95.5469 82.7315 96.1222 82.7315 96.7273ZM80.6733 118L98.6733 91.8182H102.023L84.0227 118H80.6733Z" fill="#353535"/>
<rect x="117" y="96" width="40" height="18" rx="9" fill="#DD5050" fill-opacity="0.2"/>
<rect x="117.5" y="96.5" width="39" height="17" rx="8.5" stroke="#DD5050" stroke-opacity="0.6"/>
<path d="M128 101.5V108.5M128 108.5L124.5 105M128 108.5L131.5 105" stroke="#DD5050" stroke-linecap="round" stroke-linejoin="round"/>
<path d="M140.175 109.099C139.701 109.099 139.277 109.011 138.903 108.833C138.529 108.653 138.232 108.407 138.012 108.094C137.794 107.782 137.678 107.424 137.664 107.022H138.942C138.966 107.32 139.095 107.564 139.33 107.754C139.564 107.941 139.846 108.034 140.175 108.034C140.433 108.034 140.662 107.975 140.864 107.857C141.065 107.738 141.223 107.574 141.339 107.363C141.455 107.152 141.512 106.912 141.51 106.642C141.512 106.367 141.454 106.124 141.336 105.911C141.218 105.697 141.055 105.531 140.849 105.41C140.643 105.287 140.407 105.225 140.139 105.225C139.921 105.223 139.707 105.263 139.496 105.346C139.286 105.429 139.119 105.538 138.996 105.673L137.806 105.477L138.186 101.727H142.405V102.828H139.276L139.067 104.756H139.109C139.244 104.598 139.435 104.466 139.681 104.362C139.927 104.256 140.197 104.202 140.491 104.202C140.931 104.202 141.324 104.307 141.67 104.515C142.015 104.721 142.288 105.005 142.487 105.367C142.685 105.729 142.785 106.144 142.785 106.61C142.785 107.091 142.674 107.519 142.451 107.896C142.231 108.27 141.924 108.564 141.531 108.78C141.141 108.993 140.688 109.099 140.175 109.099ZM147.863 107.636V107.253C147.863 106.971 147.922 106.712 148.04 106.475C148.161 106.238 148.336 106.048 148.566 105.903C148.796 105.759 149.074 105.687 149.401 105.687C149.737 105.687 150.018 105.759 150.246 105.903C150.473 106.045 150.645 106.235 150.761 106.472C150.879 106.708 150.938 106.969 150.938 107.253V107.636C150.938 107.918 150.879 108.177 150.761 108.414C150.642 108.651 150.468 108.841 150.239 108.986C150.011 109.13 149.732 109.202 149.401 109.202C149.069 109.202 148.789 109.13 148.559 108.986C148.329 108.841 148.155 108.651 148.037 108.414C147.921 108.177 147.863 107.918 147.863 107.636ZM148.79 107.253V107.636C148.79 107.823 148.835 107.995 148.925 108.151C149.015 108.308 149.173 108.386 149.401 108.386C149.63 108.386 149.788 108.309 149.873 108.155C149.96 107.999 150.004 107.826 150.004 107.636V107.253C150.004 107.063 149.963 106.891 149.88 106.734C149.797 106.576 149.637 106.496 149.401 106.496C149.178 106.496 149.021 106.576 148.928 106.734C148.836 106.891 148.79 107.063 148.79 107.253ZM144.166 103.474V103.091C144.166 102.807 144.227 102.546 144.347 102.31C144.468 102.073 144.643 101.884 144.873 101.741C145.103 101.597 145.381 101.525 145.707 101.525C146.041 101.525 146.322 101.597 146.549 101.741C146.779 101.884 146.951 102.073 147.067 102.31C147.183 102.546 147.241 102.807 147.241 103.091V103.474C147.241 103.759 147.182 104.019 147.064 104.256C146.948 104.49 146.775 104.678 146.545 104.82C146.316 104.962 146.036 105.033 145.707 105.033C145.374 105.033 145.092 104.962 144.862 104.82C144.635 104.678 144.462 104.489 144.344 104.252C144.225 104.015 144.166 103.756 144.166 103.474ZM145.1 103.091V103.474C145.1 103.664 145.144 103.837 145.232 103.993C145.321 104.147 145.48 104.224 145.707 104.224C145.935 104.224 146.091 104.147 146.176 103.993C146.264 103.837 146.308 103.664 146.308 103.474V103.091C146.308 102.902 146.266 102.729 146.183 102.572C146.1 102.414 145.942 102.335 145.707 102.335C145.482 102.335 145.325 102.414 145.235 102.572C145.145 102.731 145.1 102.904 145.1 103.091ZM144.571 109L149.571 101.727H150.459L145.459 109H144.571Z" fill="#DD5050"/>
<path d="M167.129 103.524C167.469 101.599 168.461 99.8492 169.94 98.5704C171.419 97.2916 173.294 96.5617 175.248 96.5037C177.202 96.4457 179.116 97.0632 180.669 98.252C182.221 99.4408 183.316 101.128 183.769 103.03L179.138 104.133C178.939 103.296 178.457 102.554 177.774 102.031C177.091 101.508 176.249 101.236 175.389 101.262C174.529 101.287 173.704 101.608 173.054 102.171C172.403 102.734 171.966 103.503 171.817 104.351L167.129 103.524Z" fill="#4D932D"/>
<path d="M182.861 109.25C182.024 110.7 180.778 111.87 179.279 112.614C177.779 113.358 176.094 113.643 174.433 113.433L175.03 108.71C175.761 108.803 176.503 108.678 177.163 108.35C177.822 108.023 178.371 107.508 178.739 106.87L182.861 109.25Z" fill="#E4783A"/>
<path d="M174.759 113.468C173.571 113.364 172.418 113.011 171.375 112.432C170.332 111.853 169.423 111.062 168.706 110.108C167.989 109.155 167.481 108.062 167.215 106.899C166.948 105.737 166.93 104.531 167.16 103.361L171.83 104.279C171.729 104.794 171.737 105.324 171.855 105.836C171.972 106.347 172.195 106.828 172.511 107.248C172.826 107.667 173.226 108.015 173.685 108.27C174.144 108.525 174.651 108.68 175.174 108.726L174.759 113.468Z" fill="#EDB42A"/>
<path d="M183.71 102.8C184.294 104.978 183.988 107.298 182.861 109.25L178.739 106.87C179.235 106.011 179.369 104.99 179.113 104.032L183.71 102.8Z" fill="#DD5050"/>
</g>
<defs>
<filter id="filter0_dd_369_1025" x="0" y="0" width="257" height="147" filterUnits="userSpaceOnUse" color-interpolation-filters="sRGB">
<feFlood flood-opacity="0" result="BackgroundImageFix"/>
<feColorMatrix in="SourceAlpha" type="matrix" values="0 0 0 0 0 0 0 0 0 0 0 0 0 0 0 0 0 0 127 0" result="hardAlpha"/>
<feMorphology radius="1" operator="erode" in="SourceAlpha" result="effect1_dropShadow_369_1025"/>
<feOffset dy="4"/>
<feGaussianBlur stdDeviation="2"/>
<feComposite in2="hardAlpha" operator="out"/>
<feColorMatrix type="matrix" values="0 0 0 0 0.0470588 0 0 0 0 0.0470588 0 0 0 0 0.0509804 0 0 0 0.05 0"/>
<feBlend mode="normal" in2="BackgroundImageFix" result="effect1_dropShadow_369_1025"/>
<feColorMatrix in="SourceAlpha" type="matrix" values="0 0 0 0 0 0 0 0 0 0 0 0 0 0 0 0 0 0 127 0" result="hardAlpha"/>
<feMorphology radius="1" operator="erode" in="SourceAlpha" result="effect2_dropShadow_369_1025"/>
<feOffset dy="4"/>
<feGaussianBlur stdDeviation="2"/>
<feComposite in2="hardAlpha" operator="out"/>
<feColorMatrix type="matrix" values="0 0 0 0 0.0470588 0 0 0 0 0.0470588 0 0 0 0 0.0509804 0 0 0 0.1 0"/>
<feBlend mode="normal" in2="effect1_dropShadow_369_1025" result="effect2_dropShadow_369_1025"/>
<feBlend mode="normal" in="SourceGraphic" in2="effect2_dropShadow_369_1025" result="shape"/>
</filter>
</defs>
</svg>
