<svg width="257" height="147" viewBox="0 0 257 147" fill="none" xmlns="http://www.w3.org/2000/svg">
<g filter="url(#filter0_dd_369_1004)">
<rect x="3" width="251" height="140" rx="19" fill="white"/>
<rect x="3.5" y="0.5" width="250" height="139" rx="18.5" stroke="#DFDFDF"/>
<path d="M43 48H35.8M35.8 48C34.1198 48 33.2798 48 32.638 47.673C32.0735 47.3854 31.6146 46.9265 31.327 46.362C31 45.7202 31 44.8802 31 43.2M35.8 48H36.2C37.8802 48 38.7202 48 39.362 47.673C39.9265 47.3854 40.3854 46.9265 40.673 46.362C41 45.7202 41 44.8802 41 43.2V42.8C41 41.1198 41 40.2798 40.673 39.638C40.3854 39.0735 39.9265 38.6146 39.362 38.327C38.7202 38 37.8802 38 36.2 38H35.8C34.1198 38 33.2798 38 32.638 38.327C32.0735 38.6146 31.6146 39.0735 31.327 39.638C31 40.2798 31 41.1198 31 42.8V43.2M31 43.2V36M39 28H43M51 36V40M47 48C47.93 48 48.395 48 48.7765 47.8978C49.8117 47.6204 50.6204 46.8117 50.8978 45.7765C51 45.395 51 44.93 51 44M51 32C51 31.07 51 30.605 50.8978 30.2235C50.6204 29.1883 49.8117 28.3796 48.7765 28.1022C48.395 28 47.93 28 47 28M35 28C34.07 28 33.605 28 33.2235 28.1022C32.1883 28.3796 31.3796 29.1883 31.1022 30.2235C31 30.605 31 31.07 31 32" stroke="#353535" stroke-width="2" stroke-linecap="round" stroke-linejoin="round"/>
<path d="M217.709 38C217.709 38.4372 218.063 38.7917 218.5 38.7917C218.938 38.7917 219.292 38.4372 219.292 38C219.292 37.5628 218.938 37.2084 218.5 37.2084C218.063 37.2084 217.709 37.5628 217.709 38Z" fill="#353535"/>
<path d="M217.709 43.5417C217.709 43.9789 218.063 44.3334 218.5 44.3334C218.938 44.3334 219.292 43.9789 219.292 43.5417C219.292 43.1045 218.938 42.75 218.5 42.75C218.063 42.75 217.709 43.1045 217.709 43.5417Z" fill="#353535"/>
<path d="M217.709 32.4584C217.709 32.8956 218.063 33.25 218.5 33.25C218.938 33.25 219.292 32.8956 219.292 32.4584C219.292 32.0211 218.938 31.6667 218.5 31.6667C218.063 31.6667 217.709 32.0211 217.709 32.4584Z" fill="#353535"/>
<path d="M217.709 38C217.709 38.4372 218.063 38.7917 218.5 38.7917C218.938 38.7917 219.292 38.4372 219.292 38C219.292 37.5628 218.938 37.2084 218.5 37.2084C218.063 37.2084 217.709 37.5628 217.709 38Z" stroke="#353535" stroke-linecap="round" stroke-linejoin="round"/>
<path d="M217.709 43.5417C217.709 43.9789 218.063 44.3334 218.5 44.3334C218.938 44.3334 219.292 43.9789 219.292 43.5417C219.292 43.1045 218.938 42.75 218.5 42.75C218.063 42.75 217.709 43.1045 217.709 43.5417Z" stroke="#353535" stroke-linecap="round" stroke-linejoin="round"/>
<path d="M217.709 32.4584C217.709 32.8956 218.063 33.25 218.5 33.25C218.938 33.25 219.292 32.8956 219.292 32.4584C219.292 32.0211 218.938 31.6667 218.5 31.6667C218.063 31.6667 217.709 32.0211 217.709 32.4584Z" stroke="#353535" stroke-linecap="round" stroke-linejoin="round"/>
<path d="M30.4382 75V61.9091H32.4134V73.2997H38.3452V75H30.4382ZM44.6765 75.1982C43.7092 75.1982 42.8761 74.9915 42.1772 74.5781C41.4826 74.1605 40.9457 73.5746 40.5664 72.8203C40.1914 72.0618 40.0039 71.1733 40.0039 70.1548C40.0039 69.1491 40.1914 68.2628 40.5664 67.4957C40.9457 66.7287 41.4741 66.13 42.1516 65.6996C42.8335 65.2692 43.6303 65.054 44.5423 65.054C45.0962 65.054 45.6332 65.1456 46.1531 65.3288C46.6729 65.5121 47.1396 65.7997 47.5529 66.1918C47.9663 66.5838 48.2923 67.093 48.5309 67.7195C48.7695 68.3416 48.8889 69.098 48.8889 69.9886V70.6662H41.0842V69.2344H47.016C47.016 68.7315 46.9137 68.2862 46.7092 67.8984C46.5046 67.5064 46.217 67.1974 45.8462 66.9716C45.4798 66.7457 45.0494 66.6328 44.555 66.6328C44.0181 66.6328 43.5494 66.7649 43.1488 67.0291C42.7525 67.2891 42.4457 67.63 42.2283 68.0518C42.0153 68.4695 41.9087 68.9233 41.9087 69.4134V70.532C41.9087 71.1882 42.0238 71.7464 42.2539 72.2067C42.4883 72.6669 42.8143 73.0185 43.2319 73.2614C43.6495 73.5 44.1374 73.6193 44.6957 73.6193C45.0579 73.6193 45.3881 73.5682 45.6864 73.4659C45.9847 73.3594 46.2425 73.2017 46.4599 72.9929C46.6772 72.7841 46.8434 72.5263 46.9585 72.2195L48.7674 72.5455C48.6225 73.0781 48.3626 73.5447 47.9876 73.9453C47.6168 74.3416 47.1502 74.6506 46.5877 74.8722C46.0295 75.0895 45.3924 75.1982 44.6765 75.1982ZM55.2409 75.1982C54.2736 75.1982 53.4405 74.9915 52.7417 74.5781C52.0471 74.1605 51.5101 73.5746 51.1309 72.8203C50.7559 72.0618 50.5684 71.1733 50.5684 70.1548C50.5684 69.1491 50.7559 68.2628 51.1309 67.4957C51.5101 66.7287 52.0385 66.13 52.7161 65.6996C53.3979 65.2692 54.1948 65.054 55.1067 65.054C55.6607 65.054 56.1976 65.1456 56.7175 65.3288C57.2374 65.5121 57.704 65.7997 58.1174 66.1918C58.5307 66.5838 58.8567 67.093 59.0953 67.7195C59.334 68.3416 59.4533 69.098 59.4533 69.9886V70.6662H51.6486V69.2344H57.5804C57.5804 68.7315 57.4782 68.2862 57.2736 67.8984C57.0691 67.5064 56.7814 67.1974 56.4107 66.9716C56.0442 66.7457 55.6138 66.6328 55.1195 66.6328C54.5826 66.6328 54.1138 66.7649 53.7132 67.0291C53.3169 67.2891 53.0101 67.63 52.7928 68.0518C52.5797 68.4695 52.4732 68.9233 52.4732 69.4134V70.532C52.4732 71.1882 52.5882 71.7464 52.8184 72.2067C53.0527 72.6669 53.3787 73.0185 53.7963 73.2614C54.214 73.5 54.7019 73.6193 55.2601 73.6193C55.6223 73.6193 55.9526 73.5682 56.2509 73.4659C56.5492 73.3594 56.807 73.2017 57.0243 72.9929C57.2417 72.7841 57.4078 72.5263 57.5229 72.2195L59.3319 72.5455C59.187 73.0781 58.927 73.5447 58.552 73.9453C58.1813 74.3416 57.7147 74.6506 57.1522 74.8722C56.5939 75.0895 55.9569 75.1982 55.2409 75.1982ZM61.5739 75V65.1818H63.4212V66.7415H63.5234C63.7024 66.2131 64.0178 65.7976 64.4695 65.495C64.9254 65.1882 65.4411 65.0348 66.0163 65.0348C66.1357 65.0348 66.2763 65.0391 66.4382 65.0476C66.6044 65.0561 66.7344 65.0668 66.8281 65.0795V66.9077C66.7514 66.8864 66.6151 66.8629 66.419 66.8374C66.223 66.8075 66.027 66.7926 65.831 66.7926C65.3793 66.7926 64.9766 66.8885 64.6229 67.0803C64.2734 67.2678 63.9964 67.5298 63.7919 67.8665C63.5874 68.1989 63.4851 68.5781 63.4851 69.0043V75H61.5739ZM75.8393 67.5788L74.1071 67.8857C74.0346 67.6641 73.9196 67.4531 73.7619 67.2528C73.6085 67.0526 73.3997 66.8885 73.1355 66.7607C72.8713 66.6328 72.541 66.5689 72.1447 66.5689C71.6035 66.5689 71.1518 66.6903 70.7896 66.9332C70.4274 67.1719 70.2463 67.4808 70.2463 67.8601C70.2463 68.1882 70.3677 68.4524 70.6106 68.6527C70.8535 68.853 71.2456 69.017 71.7868 69.1449L73.3464 69.5028C74.2498 69.7116 74.9231 70.0334 75.3663 70.468C75.8095 70.9027 76.0311 71.4673 76.0311 72.1619C76.0311 72.75 75.8606 73.2741 75.5197 73.7344C75.1831 74.1903 74.7122 74.5483 74.1071 74.8082C73.5062 75.0682 72.8095 75.1982 72.0169 75.1982C70.9174 75.1982 70.0204 74.9638 69.3258 74.495C68.6312 74.022 68.2051 73.3509 68.0474 72.4815L69.8947 72.2003C70.0098 72.6818 70.2463 73.0462 70.6042 73.2933C70.9622 73.5362 71.4288 73.6577 72.0041 73.6577C72.6305 73.6577 73.1312 73.5277 73.5062 73.2678C73.8812 73.0036 74.0687 72.6818 74.0687 72.3026C74.0687 71.9957 73.9537 71.7379 73.7235 71.5291C73.4977 71.3203 73.1504 71.1626 72.6816 71.0561L71.0197 70.6918C70.1035 70.483 69.426 70.1506 68.987 69.6946C68.5524 69.2386 68.335 68.6612 68.335 67.9624C68.335 67.3828 68.497 66.8757 68.8208 66.4411C69.1447 66.0064 69.5922 65.6676 70.1632 65.4247C70.7342 65.1776 71.3883 65.054 72.1255 65.054C73.1866 65.054 74.0218 65.2841 74.6312 65.7443C75.2406 66.2003 75.6433 66.8118 75.8393 67.5788ZM82.7156 65.1818V66.7159H77.3526V65.1818H82.7156ZM78.7908 62.8295H80.7021V72.1172C80.7021 72.4879 80.7575 72.767 80.8683 72.9545C80.979 73.1378 81.1218 73.2635 81.2965 73.3317C81.4755 73.3956 81.6694 73.4276 81.8782 73.4276C82.0316 73.4276 82.1658 73.4169 82.2809 73.3956C82.396 73.3743 82.4854 73.3572 82.5494 73.3445L82.8945 74.9233C82.7837 74.9659 82.6261 75.0085 82.4215 75.0511C82.217 75.098 81.9613 75.1236 81.6545 75.1278C81.1516 75.1364 80.6829 75.0469 80.2482 74.8594C79.8136 74.6719 79.462 74.3821 79.1935 73.9901C78.9251 73.598 78.7908 73.1058 78.7908 72.5135V62.8295ZM87.687 75.2173C87.0648 75.2173 86.5023 75.1023 85.9995 74.8722C85.4966 74.6378 85.0982 74.299 84.8042 73.8558C84.5144 73.4126 84.3695 72.8693 84.3695 72.2259C84.3695 71.6719 84.476 71.2159 84.6891 70.858C84.9022 70.5 85.1898 70.2166 85.552 70.0078C85.9142 69.799 86.3191 69.6413 86.7665 69.5348C87.214 69.4283 87.6699 69.3473 88.1344 69.2919C88.7225 69.2237 89.1998 69.1683 89.5662 69.1257C89.9327 69.0788 90.199 69.0043 90.3652 68.902C90.5314 68.7997 90.6145 68.6335 90.6145 68.4034V68.3587C90.6145 67.8004 90.4569 67.3679 90.1415 67.0611C89.8304 66.7543 89.3659 66.6009 88.748 66.6009C88.1046 66.6009 87.5975 66.7436 87.2267 67.0291C86.8603 67.3104 86.6067 67.6236 86.4661 67.9688L84.6699 67.5597C84.883 66.9631 85.1941 66.4815 85.6032 66.1151C86.0165 65.7443 86.4917 65.4759 87.0286 65.3097C87.5655 65.1392 88.1301 65.054 88.7225 65.054C89.1145 65.054 89.53 65.1009 89.9689 65.1946C90.4121 65.2841 90.8255 65.4503 91.209 65.6932C91.5968 65.9361 91.9142 66.2834 92.1614 66.7351C92.4086 67.1825 92.5321 67.7642 92.5321 68.4801V75H90.6657V73.6577H90.589C90.4654 73.9048 90.28 74.1477 90.0328 74.3864C89.7857 74.625 89.4682 74.8232 89.0804 74.9808C88.6926 75.1385 88.2282 75.2173 87.687 75.2173ZM88.1025 73.6832C88.6309 73.6832 89.0826 73.5788 89.4576 73.37C89.8368 73.1612 90.1245 72.8885 90.3205 72.5518C90.5208 72.2109 90.6209 71.8466 90.6209 71.4588V70.1932C90.5527 70.2614 90.4206 70.3253 90.2246 70.3849C90.0328 70.4403 89.8134 70.4893 89.5662 70.532C89.3191 70.5703 89.0783 70.6065 88.8439 70.6406C88.6096 70.6705 88.4135 70.696 88.2559 70.7173C87.8851 70.7642 87.5463 70.843 87.2395 70.9538C86.937 71.0646 86.6941 71.2244 86.5108 71.4332C86.3319 71.6378 86.2424 71.9105 86.2424 72.2514C86.2424 72.7244 86.4171 73.0824 86.7665 73.3253C87.1159 73.5639 87.5613 73.6832 88.1025 73.6832ZM96.989 69.1705V75H95.0778V65.1818H96.9123V66.7798H97.0337C97.2596 66.2599 97.6133 65.8423 98.0948 65.527C98.5806 65.2116 99.1921 65.054 99.9293 65.054C100.598 65.054 101.184 65.1946 101.687 65.4759C102.19 65.7528 102.58 66.1662 102.857 66.7159C103.134 67.2656 103.272 67.9453 103.272 68.755V75H101.361V68.9851C101.361 68.2734 101.176 67.7173 100.805 67.3168C100.434 66.9119 99.9251 66.7095 99.2773 66.7095C98.8342 66.7095 98.44 66.8054 98.0948 66.9972C97.7539 67.1889 97.4833 67.4702 97.283 67.8409C97.087 68.2074 96.989 68.6506 96.989 69.1705ZM109.511 75.1918C108.718 75.1918 108.011 74.9893 107.389 74.5845C106.771 74.1754 106.285 73.5937 105.931 72.8395C105.582 72.081 105.407 71.1712 105.407 70.1101C105.407 69.049 105.584 68.1413 105.938 67.3871C106.296 66.6328 106.786 66.0554 107.408 65.6548C108.03 65.2543 108.735 65.054 109.524 65.054C110.133 65.054 110.623 65.1562 110.994 65.3608C111.369 65.5611 111.659 65.7955 111.863 66.0639C112.072 66.3324 112.234 66.5689 112.349 66.7734H112.464V61.9091H114.375V75H112.509V73.4723H112.349C112.234 73.6811 112.068 73.9197 111.85 74.1882C111.637 74.4567 111.343 74.6911 110.968 74.8913C110.593 75.0916 110.108 75.1918 109.511 75.1918ZM109.933 73.5618C110.483 73.5618 110.947 73.4169 111.326 73.1271C111.71 72.8331 112 72.4261 112.196 71.9062C112.396 71.3864 112.496 70.7812 112.496 70.0909C112.496 69.4091 112.398 68.8125 112.202 68.3011C112.006 67.7898 111.718 67.3913 111.339 67.1058C110.96 66.8203 110.491 66.6776 109.933 66.6776C109.358 66.6776 108.878 66.8267 108.495 67.125C108.111 67.4233 107.821 67.8303 107.625 68.3459C107.434 68.8615 107.338 69.4432 107.338 70.0909C107.338 70.7472 107.436 71.3374 107.632 71.8615C107.828 72.3857 108.118 72.8011 108.501 73.108C108.889 73.4105 109.366 73.5618 109.933 73.5618ZM124.46 67.5788L122.728 67.8857C122.656 67.6641 122.541 67.4531 122.383 67.2528C122.23 67.0526 122.021 66.8885 121.757 66.7607C121.492 66.6328 121.162 66.5689 120.766 66.5689C120.225 66.5689 119.773 66.6903 119.411 66.9332C119.048 67.1719 118.867 67.4808 118.867 67.8601C118.867 68.1882 118.989 68.4524 119.232 68.6527C119.475 68.853 119.867 69.017 120.408 69.1449L121.968 69.5028C122.871 69.7116 123.544 70.0334 123.987 70.468C124.431 70.9027 124.652 71.4673 124.652 72.1619C124.652 72.75 124.482 73.2741 124.141 73.7344C123.804 74.1903 123.333 74.5483 122.728 74.8082C122.127 75.0682 121.431 75.1982 120.638 75.1982C119.539 75.1982 118.642 74.9638 117.947 74.495C117.252 74.022 116.826 73.3509 116.669 72.4815L118.516 72.2003C118.631 72.6818 118.867 73.0462 119.225 73.2933C119.583 73.5362 120.05 73.6577 120.625 73.6577C121.252 73.6577 121.752 73.5277 122.127 73.2678C122.502 73.0036 122.69 72.6818 122.69 72.3026C122.69 71.9957 122.575 71.7379 122.345 71.5291C122.119 71.3203 121.771 71.1626 121.303 71.0561L119.641 70.6918C118.725 70.483 118.047 70.1506 117.608 69.6946C117.173 69.2386 116.956 68.6612 116.956 67.9624C116.956 67.3828 117.118 66.8757 117.442 66.4411C117.766 66.0064 118.213 65.6676 118.784 65.4247C119.355 65.1776 120.009 65.054 120.747 65.054C121.808 65.054 122.643 65.2841 123.252 65.7443C123.862 66.2003 124.264 66.8118 124.46 67.5788ZM133.382 78.6818V73.4723H133.267C133.152 73.6811 132.986 73.9197 132.768 74.1882C132.555 74.4567 132.261 74.6911 131.886 74.8913C131.511 75.0916 131.026 75.1918 130.429 75.1918C129.636 75.1918 128.929 74.9893 128.307 74.5845C127.689 74.1754 127.203 73.5937 126.849 72.8395C126.5 72.081 126.325 71.1712 126.325 70.1101C126.325 69.049 126.502 68.1413 126.856 67.3871C127.214 66.6328 127.704 66.0554 128.326 65.6548C128.948 65.2543 129.653 65.054 130.442 65.054C131.051 65.054 131.541 65.1562 131.912 65.3608C132.287 65.5611 132.577 65.7955 132.781 66.0639C132.99 66.3324 133.152 66.5689 133.267 66.7734H133.427V65.1818H135.293V78.6818H133.382ZM130.851 73.5618C131.401 73.5618 131.865 73.4169 132.244 73.1271C132.628 72.8331 132.918 72.4261 133.114 71.9062C133.314 71.3864 133.414 70.7812 133.414 70.0909C133.414 69.4091 133.316 68.8125 133.12 68.3011C132.924 67.7898 132.636 67.3913 132.257 67.1058C131.878 66.8203 131.409 66.6776 130.851 66.6776C130.276 66.6776 129.796 66.8267 129.413 67.125C129.029 67.4233 128.739 67.8303 128.543 68.3459C128.352 68.8615 128.256 69.4432 128.256 70.0909C128.256 70.7472 128.354 71.3374 128.55 71.8615C128.746 72.3857 129.036 72.8011 129.419 73.108C129.807 73.4105 130.284 73.5618 130.851 73.5618ZM144.082 70.9283V65.1818H146V75H144.121V73.2997H144.018C143.793 73.8239 143.43 74.2607 142.932 74.6101C142.438 74.9553 141.822 75.1278 141.085 75.1278C140.454 75.1278 139.896 74.9893 139.41 74.7124C138.928 74.4311 138.549 74.0156 138.272 73.4659C137.999 72.9162 137.863 72.2365 137.863 71.4268V65.1818H139.774V71.1967C139.774 71.8658 139.96 72.3984 140.33 72.7947C140.701 73.1911 141.183 73.3892 141.775 73.3892C142.133 73.3892 142.489 73.2997 142.842 73.1207C143.2 72.9418 143.496 72.6712 143.731 72.3089C143.969 71.9467 144.087 71.4865 144.082 70.9283ZM152.704 75.1982C151.783 75.1982 150.98 74.9872 150.294 74.5653C149.608 74.1435 149.075 73.5533 148.696 72.7947C148.317 72.0362 148.127 71.1499 148.127 70.1357C148.127 69.1172 148.317 68.2266 148.696 67.4638C149.075 66.701 149.608 66.1087 150.294 65.6868C150.98 65.2649 151.783 65.054 152.704 65.054C153.624 65.054 154.427 65.2649 155.113 65.6868C155.8 66.1087 156.332 66.701 156.711 67.4638C157.091 68.2266 157.28 69.1172 157.28 70.1357C157.28 71.1499 157.091 72.0362 156.711 72.7947C156.332 73.5533 155.8 74.1435 155.113 74.5653C154.427 74.9872 153.624 75.1982 152.704 75.1982ZM152.71 73.5938C153.307 73.5938 153.801 73.4361 154.193 73.1207C154.585 72.8054 154.875 72.3857 155.062 71.8615C155.254 71.3374 155.35 70.7599 155.35 70.1293C155.35 69.5028 155.254 68.9276 155.062 68.4034C154.875 67.875 154.585 67.451 154.193 67.1314C153.801 66.8118 153.307 66.652 152.71 66.652C152.109 66.652 151.611 66.8118 151.214 67.1314C150.822 67.451 150.53 67.875 150.339 68.4034C150.151 68.9276 150.057 69.5028 150.057 70.1293C150.057 70.7599 150.151 71.3374 150.339 71.8615C150.53 72.3857 150.822 72.8054 151.214 73.1207C151.611 73.4361 152.109 73.5938 152.71 73.5938ZM163.997 65.1818V66.7159H158.634V65.1818H163.997ZM160.072 62.8295H161.983V72.1172C161.983 72.4879 162.039 72.767 162.15 72.9545C162.26 73.1378 162.403 73.2635 162.578 73.3317C162.757 73.3956 162.951 73.4276 163.159 73.4276C163.313 73.4276 163.447 73.4169 163.562 73.3956C163.677 73.3743 163.767 73.3572 163.831 73.3445L164.176 74.9233C164.065 74.9659 163.907 75.0085 163.703 75.0511C163.498 75.098 163.243 75.1236 162.936 75.1278C162.433 75.1364 161.964 75.0469 161.529 74.8594C161.095 74.6719 160.743 74.3821 160.475 73.9901C160.206 73.598 160.072 73.1058 160.072 72.5135V62.8295ZM170.237 75.1982C169.27 75.1982 168.437 74.9915 167.738 74.5781C167.043 74.1605 166.506 73.5746 166.127 72.8203C165.752 72.0618 165.564 71.1733 165.564 70.1548C165.564 69.1491 165.752 68.2628 166.127 67.4957C166.506 66.7287 167.035 66.13 167.712 65.6996C168.394 65.2692 169.191 65.054 170.103 65.054C170.657 65.054 171.194 65.1456 171.714 65.3288C172.233 65.5121 172.7 65.7997 173.113 66.1918C173.527 66.5838 173.853 67.093 174.091 67.7195C174.33 68.3416 174.449 69.098 174.449 69.9886V70.6662H166.645V69.2344H172.577C172.577 68.7315 172.474 68.2862 172.27 67.8984C172.065 67.5064 171.778 67.1974 171.407 66.9716C171.04 66.7457 170.61 66.6328 170.116 66.6328C169.579 66.6328 169.11 66.7649 168.709 67.0291C168.313 67.2891 168.006 67.63 167.789 68.0518C167.576 68.4695 167.469 68.9233 167.469 69.4134V70.532C167.469 71.1882 167.584 71.7464 167.814 72.2067C168.049 72.6669 168.375 73.0185 168.792 73.2614C169.21 73.5 169.698 73.6193 170.256 73.6193C170.618 73.6193 170.949 73.5682 171.247 73.4659C171.545 73.3594 171.803 73.2017 172.02 72.9929C172.238 72.7841 172.404 72.5263 172.519 72.2195L174.328 72.5455C174.183 73.0781 173.923 73.5447 173.548 73.9453C173.177 74.3416 172.711 74.6506 172.148 74.8722C171.59 75.0895 170.953 75.1982 170.237 75.1982Z" fill="#353535"/>
<path d="M30.7259 113.398V109.038L41.6562 91.8182H45.4148V97.8523H43.1903L36.2997 108.757V108.962H51.8324V113.398H30.7259ZM43.2926 118V112.068L43.3949 110.138V91.8182H48.5852V118H43.2926ZM69.8516 113.091V111.71C69.8516 110.662 70.0732 109.699 70.5163 108.821C70.968 107.935 71.62 107.227 72.4723 106.699C73.3331 106.162 74.3814 105.893 75.6172 105.893C76.87 105.893 77.9226 106.158 78.7749 106.686C79.6357 107.214 80.2834 107.922 80.718 108.808C81.1612 109.686 81.3828 110.653 81.3828 111.71V113.091C81.3828 114.139 81.1612 115.107 80.718 115.993C80.2749 116.871 79.6229 117.574 78.7621 118.102C77.9013 118.639 76.853 118.908 75.6172 118.908C74.3643 118.908 73.3118 118.639 72.4595 118.102C71.6072 117.574 70.9595 116.871 70.5163 115.993C70.0732 115.107 69.8516 114.139 69.8516 113.091ZM73.5717 111.71V113.091C73.5717 113.696 73.7166 114.267 74.0064 114.804C74.3047 115.341 74.8416 115.609 75.6172 115.609C76.3928 115.609 76.9212 115.345 77.2024 114.817C77.4922 114.288 77.6371 113.713 77.6371 113.091V111.71C77.6371 111.088 77.5007 110.509 77.228 109.972C76.9553 109.435 76.4183 109.166 75.6172 109.166C74.8501 109.166 74.3175 109.435 74.0192 109.972C73.7209 110.509 73.5717 111.088 73.5717 111.71ZM56.4155 98.108V96.7273C56.4155 95.6705 56.6413 94.7031 57.093 93.8253C57.5447 92.9389 58.1967 92.2315 59.049 91.7031C59.9098 91.1747 60.9496 90.9105 62.1683 90.9105C63.4297 90.9105 64.4865 91.1747 65.3388 91.7031C66.1911 92.2315 66.8388 92.9389 67.282 93.8253C67.7251 94.7031 67.9467 95.6705 67.9467 96.7273V98.108C67.9467 99.1648 67.7209 100.132 67.2692 101.01C66.826 101.888 66.174 102.591 65.3132 103.119C64.4609 103.639 63.4126 103.899 62.1683 103.899C60.924 103.899 59.8714 103.635 59.0107 103.107C58.1584 102.57 57.5107 101.866 57.0675 100.997C56.6328 100.119 56.4155 99.1562 56.4155 98.108ZM60.1612 96.7273V98.108C60.1612 98.7301 60.3061 99.3054 60.5959 99.8338C60.8942 100.362 61.4183 100.626 62.1683 100.626C62.9524 100.626 63.4851 100.362 63.7663 99.8338C64.0561 99.3054 64.201 98.7301 64.201 98.108V96.7273C64.201 96.1051 64.0646 95.5256 63.7919 94.9886C63.5192 94.4517 62.978 94.1832 62.1683 94.1832C61.4098 94.1832 60.8857 94.456 60.5959 95.0014C60.3061 95.5469 60.1612 96.1222 60.1612 96.7273ZM58.103 118L76.103 91.8182H79.4524L61.4524 118H58.103Z" fill="#353535"/>
<rect x="95" y="96" width="48" height="18" rx="9" fill="#5DB534" fill-opacity="0.2"/>
<rect x="95.5" y="96.5" width="47" height="17" rx="8.5" stroke="#4D932D" stroke-opacity="0.6"/>
<path d="M108 101.5V108.5M108 108.5L104.5 105M108 108.5L111.5 105" stroke="#4D932D" stroke-linecap="round" stroke-linejoin="round"/>
<path d="M120.604 101.727V109H119.287V103.009H119.244L117.543 104.096V102.888L119.351 101.727H120.604ZM125.409 101.727V109H124.092V103.009H124.049L122.348 104.096V102.888L124.156 101.727H125.409ZM131.144 107.636V107.253C131.144 106.971 131.203 106.712 131.322 106.475C131.442 106.238 131.618 106.048 131.847 105.903C132.077 105.759 132.355 105.687 132.682 105.687C133.018 105.687 133.3 105.759 133.527 105.903C133.754 106.045 133.926 106.235 134.042 106.472C134.16 106.708 134.219 106.969 134.219 107.253V107.636C134.219 107.918 134.16 108.177 134.042 108.414C133.924 108.651 133.75 108.841 133.52 108.986C133.293 109.13 133.013 109.202 132.682 109.202C132.35 109.202 132.07 109.13 131.84 108.986C131.611 108.841 131.437 108.651 131.318 108.414C131.202 108.177 131.144 107.918 131.144 107.636ZM132.071 107.253V107.636C132.071 107.823 132.116 107.995 132.206 108.151C132.296 108.308 132.455 108.386 132.682 108.386C132.911 108.386 133.069 108.309 133.154 108.155C133.242 107.999 133.286 107.826 133.286 107.636V107.253C133.286 107.063 133.244 106.891 133.161 106.734C133.078 106.576 132.919 106.496 132.682 106.496C132.459 106.496 132.302 106.576 132.21 106.734C132.117 106.891 132.071 107.063 132.071 107.253ZM127.447 103.474V103.091C127.447 102.807 127.508 102.546 127.629 102.31C127.749 102.073 127.924 101.884 128.154 101.741C128.384 101.597 128.662 101.525 128.989 101.525C129.322 101.525 129.603 101.597 129.83 101.741C130.06 101.884 130.233 102.073 130.349 102.31C130.465 102.546 130.523 102.807 130.523 103.091V103.474C130.523 103.759 130.464 104.019 130.345 104.256C130.229 104.49 130.056 104.678 129.827 104.82C129.597 104.962 129.318 105.033 128.989 105.033C128.655 105.033 128.373 104.962 128.143 104.82C127.916 104.678 127.743 104.489 127.625 104.252C127.507 104.015 127.447 103.756 127.447 103.474ZM128.381 103.091V103.474C128.381 103.664 128.425 103.837 128.513 103.993C128.603 104.147 128.761 104.224 128.989 104.224C129.216 104.224 129.372 104.147 129.457 103.993C129.545 103.837 129.589 103.664 129.589 103.474V103.091C129.589 102.902 129.547 102.729 129.464 102.572C129.382 102.414 129.223 102.335 128.989 102.335C128.764 102.335 128.606 102.414 128.516 102.572C128.426 102.731 128.381 102.904 128.381 103.091ZM127.852 109L132.852 101.727H133.74L128.74 109H127.852Z" fill="#4D932D"/>
</g>
<defs>
<filter id="filter0_dd_369_1004" x="0" y="0" width="257" height="147" filterUnits="userSpaceOnUse" color-interpolation-filters="sRGB">
<feFlood flood-opacity="0" result="BackgroundImageFix"/>
<feColorMatrix in="SourceAlpha" type="matrix" values="0 0 0 0 0 0 0 0 0 0 0 0 0 0 0 0 0 0 127 0" result="hardAlpha"/>
<feMorphology radius="1" operator="erode" in="SourceAlpha" result="effect1_dropShadow_369_1004"/>
<feOffset dy="4"/>
<feGaussianBlur stdDeviation="2"/>
<feComposite in2="hardAlpha" operator="out"/>
<feColorMatrix type="matrix" values="0 0 0 0 0.0470588 0 0 0 0 0.0470588 0 0 0 0 0.0509804 0 0 0 0.05 0"/>
<feBlend mode="normal" in2="BackgroundImageFix" result="effect1_dropShadow_369_1004"/>
<feColorMatrix in="SourceAlpha" type="matrix" values="0 0 0 0 0 0 0 0 0 0 0 0 0 0 0 0 0 0 127 0" result="hardAlpha"/>
<feMorphology radius="1" operator="erode" in="SourceAlpha" result="effect2_dropShadow_369_1004"/>
<feOffset dy="4"/>
<feGaussianBlur stdDeviation="2"/>
<feComposite in2="hardAlpha" operator="out"/>
<feColorMatrix type="matrix" values="0 0 0 0 0.0470588 0 0 0 0 0.0470588 0 0 0 0 0.0509804 0 0 0 0.1 0"/>
<feBlend mode="normal" in2="effect1_dropShadow_369_1004" result="effect2_dropShadow_369_1004"/>
<feBlend mode="normal" in="SourceGraphic" in2="effect2_dropShadow_369_1004" result="shape"/>
</filter>
</defs>
</svg>
