<svg width="174" height="219" viewBox="0 0 174 219" fill="none" xmlns="http://www.w3.org/2000/svg">
<path fill-rule="evenodd" clip-rule="evenodd" d="M78.8256 1.97764C81.218 -0.0914872 85.4535 -0.622297 88.286 0.792046L171.618 42.4031C174.451 43.8174 174.808 46.6413 172.415 48.7104L168.668 51.9516L97.9236 113.137C96.107 114.556 95.0518 116.081 94.439 117.711L0.857552 70.8554C1.41218 69.5282 2.30846 68.3318 3.7405 66.9955C3.91494 66.793 4.11268 66.5952 4.33392 66.4038L78.8256 1.97764Z" fill="#E4783A"/>
<path d="M93.5897 212.134V125.095C93.5897 122.431 93.5897 119.97 94.439 117.711L0.857552 70.8554C0.334732 72.1066 0.115505 73.474 0.0372847 75.1845C0.0126686 75.3993 0 75.6241 0 75.8585V172.277C0 174.871 1.47032 177.244 3.79903 178.406L83.6199 218.264C88.1978 220.55 93.5897 217.235 93.5897 212.134Z" fill="#E4783A"/>
<path d="M134.246 119.879L167.466 103.29C170.865 101.593 173.621 103.287 173.621 107.074V167.929C173.621 171.716 170.865 176.162 167.466 177.859L134.246 194.448C130.847 196.145 128.091 194.451 128.091 190.664V129.809C128.091 126.022 130.847 121.576 134.246 119.879Z" fill="#E4783A"/>
</svg>
