<svg width="1114" height="334" viewBox="0 0 1114 334" fill="none" xmlns="http://www.w3.org/2000/svg">
<path d="M204.371 182.499L254.945 157.246C260.12 154.662 264.315 157.241 264.315 163.006V255.65C264.315 261.415 260.12 268.183 254.945 270.767L204.371 296.021C199.197 298.605 195.002 296.026 195.002 290.26V197.616C195.002 191.851 199.197 185.083 204.371 182.499Z" fill="#E4783A"/>
<path d="M134.404 1.20579C130.092 -0.947364 123.644 -0.139277 120.001 3.01069L6.59782 101.091C6.261 101.382 5.95998 101.683 5.69442 101.992C3.51432 104.026 2.14985 105.847 1.30551 107.868C0.509584 109.773 0.175841 111.854 0.056761 114.458C0.0192863 114.785 0 115.128 0 115.484V262.268C0 266.218 2.23836 269.83 5.78352 271.6L127.3 332.278C134.269 335.758 142.478 330.711 142.478 322.946V190.441C142.478 186.386 142.478 182.639 143.771 179.2C144.704 176.718 146.31 174.397 149.076 172.235L256.774 79.0894L262.479 74.1552C266.121 71.0052 265.578 66.7062 261.266 64.5531L134.404 1.20579Z" fill="#E4783A"/>
<path d="M465.516 154.216C487.62 162.254 506.376 180.34 506.376 208.808C506.376 245.984 474.559 269.763 426.665 269.763H347.289C338.916 269.763 333.892 264.74 333.892 256.367V65.1269C333.892 56.7538 338.916 52.0649 347.289 52.0649H420.301C466.186 52.0649 493.314 73.4999 493.314 109.336C493.314 130.101 481.927 145.508 465.516 154.216ZM415.947 86.2269H379.441V143.163H415.947C437.047 143.163 449.774 132.781 449.774 114.695C449.774 96.6094 437.382 86.2269 415.947 86.2269ZM420.971 235.267C446.76 235.267 461.497 224.214 461.497 204.454C461.497 185.698 446.76 173.306 423.986 173.306H379.106V235.267H420.971Z" fill="#353535"/>
<path d="M557.923 196.081C560.603 224.549 583.377 240.29 609.166 240.29C622.228 240.29 636.965 236.606 651.701 225.219C657.73 220.53 662.419 219.525 667.777 225.219L675.815 233.257C682.179 239.621 679.5 244.644 675.815 248.663C658.735 266.079 628.927 274.117 605.147 274.117C554.909 274.117 514.049 239.621 514.049 186.033C514.049 135.46 551.225 97.9491 601.798 97.9491C627.252 97.9491 648.687 106.992 663.089 121.394C678.83 136.8 687.538 158.905 687.538 182.349C687.538 191.727 683.854 196.081 673.806 196.081H557.923ZM601.128 130.771C578.019 130.771 561.607 145.508 558.258 168.617H643.998C642.323 158.235 638.304 149.527 631.941 143.163C624.573 135.125 613.855 130.771 601.128 130.771Z" fill="#353535"/>
<path d="M923.84 100.628C931.543 100.628 936.232 105.652 933.217 113.355L876.616 259.046C872.932 268.089 868.243 271.438 860.874 271.438H858.865C851.497 271.438 846.473 268.089 843.124 259.046L807.957 160.579L772.455 259.046C769.106 268.089 764.082 271.438 756.714 271.438H754.705C747.336 271.438 742.647 268.089 738.963 259.046L683.031 113.355C680.017 105.652 684.706 100.628 692.409 100.628H711.165C719.538 100.628 724.897 104.648 727.241 113.355L757.384 214.502L791.881 111.011C794.895 101.633 799.919 98.9538 807.287 98.9538H808.962C816.33 98.9538 821.354 101.968 824.368 111.011L858.865 212.492L888.673 113.355C891.352 104.648 896.711 100.628 904.749 100.628H923.84Z" fill="#353535"/>
<path d="M1102.78 100.628C1110.82 100.628 1115.51 105.987 1112.16 113.355L1035.12 290.529C1020.72 324.021 1001.3 333.398 978.188 333.398C968.475 333.398 959.432 331.389 952.734 328.04C948.38 325.695 943.691 322.346 946.036 314.978L949.72 301.916C951.729 295.552 956.083 293.208 964.456 296.222C967.806 297.562 972.159 298.567 976.179 298.567C983.882 298.567 990.915 296.222 996.944 282.825L1008.33 257.706L943.356 113.355C940.007 105.987 944.696 100.628 952.734 100.628H974.504C982.877 100.628 987.231 105.317 990.245 113.355L1030.1 214.167L1069.96 113.355C1072.97 105.317 1077.32 100.628 1085.36 100.628H1102.78Z" fill="#353535"/>
</svg>
