<svg width="722" height="225" viewBox="0 0 722 225" fill="none" xmlns="http://www.w3.org/2000/svg">
<path d="M343.839 141.765C343.839 154.52 339.988 165.478 332.285 174.641C324.142 184.244 313.799 189.045 301.255 189.045C296.56 189.045 289.481 188.935 280.018 188.715C270.628 188.495 263.586 188.385 258.891 188.385C255.443 188.385 250.235 188.532 243.266 188.825C236.37 189.118 231.199 189.265 227.751 189.265C225.917 189.265 225 188.422 225 186.736C225 178.673 225.367 166.578 226.1 150.451C226.907 134.252 227.311 122.12 227.311 114.057C227.311 105.554 226.907 92.799 226.1 75.7928C225.367 58.7133 225 45.9221 225 37.419C225 35.8063 225.917 35 227.751 35C234.28 35 244.11 35.0367 257.241 35.11C270.371 35.1833 280.238 35.2199 286.84 35.2199C302.245 35.2199 314.533 38.0787 323.702 43.7963C334.853 50.76 340.428 61.5721 340.428 76.2326C340.428 81.2905 338.961 86.5683 336.026 92.066C333.092 97.4904 329.534 101.595 325.353 104.381C323.225 105.774 322.162 106.69 322.162 107.13C322.162 107.569 323.225 108.376 325.353 109.549C330.928 112.627 335.403 117.172 338.777 123.183C342.152 129.12 343.839 135.314 343.839 141.765ZM312.919 78.6516C312.919 68.316 308.297 61.3522 299.054 57.7604C293.479 55.6346 284.346 54.5718 271.655 54.5718C259.331 54.5718 253.169 55.488 253.169 57.3206C253.169 59.7396 253.059 63.3681 252.839 68.206C252.619 73.044 252.509 76.7091 252.509 79.2014C252.509 80.8873 252.546 83.4896 252.619 87.0081C252.692 90.5266 252.729 93.1655 252.729 94.9248C252.729 97.0505 261.018 98.1134 277.597 98.1134C301.145 98.1134 312.919 91.6262 312.919 78.6516ZM315.89 140.665C315.89 131.723 311.892 125.675 303.896 122.523C298.834 120.471 290.948 119.444 280.238 119.444C261.752 119.444 252.509 120.434 252.509 122.413V140.446C252.509 143.084 252.582 147.116 252.729 152.54C252.876 157.965 252.949 162.033 252.949 164.745C252.949 165.478 255.297 166.028 259.991 166.395C264.686 166.761 271.655 166.944 280.898 166.944C292.489 166.944 300.815 165.442 305.876 162.436C312.552 158.478 315.89 151.221 315.89 140.665Z" fill="#353535"/>
<path d="M451.542 130.22C451.542 135.644 449.195 139.273 444.5 141.105C441.346 142.278 418.642 144.441 376.388 147.593C377.342 154.043 380.899 159.541 387.061 164.086C392.93 168.41 399.239 170.573 405.988 170.573C417.578 170.573 428.215 166.834 437.898 159.358C439.072 158.405 440.245 157.452 441.419 156.499C442.006 156.499 442.373 156.572 442.52 156.719C442.74 156.865 444.133 159.431 446.701 164.416C449.268 169.327 450.552 171.966 450.552 172.332C450.552 172.772 449.965 173.615 448.792 174.861C438.008 186.296 424.18 192.014 407.308 192.014C390.289 192.014 376.718 186.956 366.595 176.84C356.471 166.651 351.41 153.09 351.41 136.157C351.41 121.057 356.251 107.899 365.934 96.684C376.131 85.0289 388.639 79.2014 403.457 79.2014C417.248 79.2014 428.765 84.2593 438.008 94.375C447.031 104.198 451.542 116.146 451.542 130.22ZM425.354 123.513C425.354 117.429 422.933 112.041 418.092 107.35C413.323 102.658 407.932 100.312 401.916 100.312C395.167 100.312 389.152 103.025 383.87 108.449C378.662 113.873 376.058 119.958 376.058 126.701C376.058 128.241 377.378 129.01 380.019 129.01C390.876 129.01 403.86 127.911 418.972 125.712C423.227 125.125 425.354 124.392 425.354 123.513Z" fill="#353535"/>
<path d="M612.624 110.428C612.624 124.209 611.854 132.859 610.314 136.377C608.26 141.215 602.831 150.855 594.028 165.295C584.492 180.909 578.733 188.972 576.753 189.485C576.166 189.632 573.231 189.705 567.95 189.705C564.355 189.705 562.264 189.632 561.678 189.485C559.404 188.899 550.674 176.29 535.489 151.661C531.308 158.551 527.09 165.478 522.835 172.442C515.939 183.291 511.538 188.972 509.631 189.485C509.044 189.632 506.623 189.705 502.368 189.705C498.04 189.705 495.583 189.632 494.996 189.485C492.722 188.972 486.963 180.982 477.72 165.515C468.991 150.928 463.709 141.215 461.875 136.377C460.188 131.979 459.344 123.329 459.344 110.428C459.344 99.6528 459.711 92.2859 460.445 88.3275C460.811 86.7149 461.728 85.9086 463.195 85.9086C465.396 85.9086 468.697 85.9819 473.099 86.1285C477.5 86.2751 480.801 86.3484 483.002 86.3484C484.396 86.3484 485.093 87.4846 485.093 89.7569C485.093 91.3696 485.019 93.8252 484.873 97.1238C484.726 100.349 484.652 102.768 484.652 104.381C484.652 117.135 485.019 126.152 485.753 131.429C486.413 136.047 492.172 145.723 503.028 160.457C504.349 162.216 505.119 163.096 505.339 163.096C505.559 163.096 506.22 162.29 507.32 160.677C516.856 146.823 522.285 137.367 523.605 132.309C524.486 128.791 524.926 120.91 524.926 108.669C524.926 106.177 524.779 102.475 524.486 97.5637C524.192 92.6524 524.045 88.9873 524.045 86.5683C524.045 84.9556 524.706 84.1493 526.026 84.1493H547.043C548.217 84.1493 548.803 85.1022 548.803 87.0081C548.803 89.3538 548.693 92.909 548.473 97.6736C548.253 102.365 548.143 105.883 548.143 108.229C548.143 121.204 548.363 128.717 548.803 130.77C549.244 132.749 552.691 138.503 559.147 148.032C565.602 157.488 569.307 162.216 570.26 162.216C570.48 162.216 571.141 161.337 572.241 159.578C581.557 145.43 586.582 135.974 587.316 131.209C587.976 127.251 588.306 120.544 588.306 111.088C588.306 108.302 588.086 104.307 587.646 99.103C587.206 93.8252 586.986 90.0502 586.986 87.7778C586.986 86.6782 587.72 86.1285 589.187 86.1285C591.387 86.1285 594.652 86.0552 598.98 85.9086C603.308 85.762 606.572 85.6887 608.773 85.6887C610.387 85.6887 611.377 86.4217 611.744 87.8877C612.331 90.7465 612.624 98.26 612.624 110.428Z" fill="#353535"/>
<path d="M722 112.737C722 125.125 721.633 132.602 720.9 135.168C719.946 138.466 710.85 152.87 693.611 178.38C676.445 203.816 666.249 218.036 663.021 221.042C660.086 223.681 650.623 225 634.631 225C632.724 225 631.477 224.78 630.89 224.34C630.377 223.974 629.13 221.335 627.149 216.424C625.242 211.512 624.288 208.58 624.288 207.627C624.288 206.015 626.232 205.208 630.12 205.208C638.336 205.208 644.388 204.035 648.276 201.69C649.596 200.883 651.577 198.355 654.218 194.103C656.932 189.851 658.289 186.993 658.289 185.527C658.289 183.547 652.971 175.814 642.334 162.326C631.11 148.032 624.838 138.98 623.518 135.168C622.491 132.162 621.977 124.979 621.977 113.617C621.977 110.831 622.014 106.653 622.087 101.082C622.161 95.4379 622.197 91.1863 622.197 88.3275C622.197 86.7149 623.078 85.9086 624.838 85.9086C627.186 85.9086 630.634 86.0552 635.182 86.3484C639.803 86.6416 643.288 86.7882 645.635 86.7882C646.809 86.7882 647.396 87.5579 647.396 89.0972C647.396 91.1497 647.286 94.2284 647.066 98.3333C646.845 102.438 646.735 105.517 646.735 107.569C646.735 116.512 647.029 123.183 647.616 127.581C648.056 130.367 652.054 137.294 659.61 148.362C667.165 159.431 671.824 164.965 673.584 164.965C674.831 164.965 678.793 159.541 685.468 148.692C692.144 137.77 695.701 131.026 696.142 128.461C696.728 124.796 697.022 118.125 697.022 108.449C697.022 106.323 696.802 103.208 696.362 99.103C695.922 94.9248 695.701 91.8094 695.701 89.7569C695.701 87.9244 696.288 87.0081 697.462 87.0081C699.809 87.0081 703.331 86.8615 708.025 86.5683C712.794 86.2018 716.352 86.0185 718.699 86.0185C720.9 86.0185 722 94.9248 722 112.737Z" fill="#353535"/>
<path fill-rule="evenodd" clip-rule="evenodd" d="M78.8256 1.97764C81.218 -0.0914872 85.4535 -0.622297 88.286 0.792046L171.618 42.4031C174.451 43.8174 174.808 46.6413 172.415 48.7104L168.668 51.9516L97.9236 113.137C96.107 114.556 95.0518 116.081 94.439 117.711L0.857552 70.8554C1.41218 69.5282 2.30846 68.3318 3.7405 66.9955C3.91494 66.793 4.11268 66.5952 4.33392 66.4038L78.8256 1.97764Z" fill="#E4783A"/>
<path d="M93.5897 212.134V125.095C93.5897 122.431 93.5897 119.97 94.439 117.711L0.857552 70.8554C0.334732 72.1066 0.115505 73.474 0.0372847 75.1845C0.0126686 75.3993 0 75.6241 0 75.8585V172.277C0 174.871 1.47032 177.244 3.79903 178.406L83.6199 218.264C88.1978 220.55 93.5897 217.235 93.5897 212.134Z" fill="#E4783A"/>
<path d="M134.246 119.879L167.466 103.29C170.865 101.593 173.621 103.287 173.621 107.074V167.929C173.621 171.716 170.865 176.162 167.466 177.859L134.246 194.448C130.847 196.145 128.091 194.451 128.091 190.664V129.809C128.091 126.022 130.847 121.576 134.246 119.879Z" fill="#E4783A"/>
</svg>
